ISO-10303-21;
HEADER;
/* Generated by software containing ST-Developer
 * from STEP Tools, Inc. (www.steptools.com) 
 */

FILE_DESCRIPTION(
/* description */ (''),
/* implementation_level */ '2;1');

FILE_NAME(
/* name */ 'Modey45_R2_BOTTOM_cover.step',
/* time_stamp */ '2026-07-22T00:58:15+09:00',
/* author */ (''),
/* organization */ (''),
/* preprocessor_version */ 'ST-DEVELOPER v20.1',
/* originating_system */ 'Autodesk Translation Framework v15.8.0.0',
/* authorisation */ '');

FILE_SCHEMA (('AUTOMOTIVE_DESIGN { 1 0 10303 214 3 1 1 }'));
ENDSEC;

DATA;
#10=MECHANICAL_DESIGN_GEOMETRIC_PRESENTATION_REPRESENTATION('',(#13),#809);
#11=SHAPE_REPRESENTATION_RELATIONSHIP('SRR','None',#816,#12);
#12=ADVANCED_BREP_SHAPE_REPRESENTATION('',(#14),#808);
#13=STYLED_ITEM('',(#825),#14);
#14=MANIFOLD_SOLID_BREP('\X2\30DC30C730A3\X0\3',#485);
#15=CYLINDRICAL_SURFACE('',#510,4.);
#16=CYLINDRICAL_SURFACE('',#512,1.1);
#17=CYLINDRICAL_SURFACE('',#514,1.09999999999999);
#18=CYLINDRICAL_SURFACE('',#516,1.09999999999999);
#19=CYLINDRICAL_SURFACE('',#526,4.);
#20=CYLINDRICAL_SURFACE('',#529,5.);
#21=CYLINDRICAL_SURFACE('',#532,5.);
#22=CIRCLE('',#507,1.09999999999999);
#23=CIRCLE('',#508,1.09999999999999);
#24=CIRCLE('',#509,1.1);
#25=CIRCLE('',#513,1.1);
#26=CIRCLE('',#515,1.09999999999999);
#27=CIRCLE('',#517,1.09999999999999);
#28=FACE_BOUND('',#62,.T.);
#29=FACE_BOUND('',#63,.T.);
#30=FACE_BOUND('',#64,.T.);
#31=FACE_BOUND('',#65,.T.);
#32=FACE_BOUND('',#88,.T.);
#33=FACE_BOUND('',#89,.T.);
#34=FACE_BOUND('',#90,.T.);
#35=FACE_BOUND('',#91,.T.);
#36=FACE_OUTER_BOUND('',#60,.T.);
#37=FACE_OUTER_BOUND('',#61,.T.);
#38=FACE_OUTER_BOUND('',#66,.T.);
#39=FACE_OUTER_BOUND('',#67,.T.);
#40=FACE_OUTER_BOUND('',#68,.T.);
#41=FACE_OUTER_BOUND('',#69,.T.);
#42=FACE_OUTER_BOUND('',#70,.T.);
#43=FACE_OUTER_BOUND('',#71,.T.);
#44=FACE_OUTER_BOUND('',#72,.T.);
#45=FACE_OUTER_BOUND('',#73,.T.);
#46=FACE_OUTER_BOUND('',#74,.T.);
#47=FACE_OUTER_BOUND('',#75,.T.);
#48=FACE_OUTER_BOUND('',#76,.T.);
#49=FACE_OUTER_BOUND('',#77,.T.);
#50=FACE_OUTER_BOUND('',#78,.T.);
#51=FACE_OUTER_BOUND('',#79,.T.);
#52=FACE_OUTER_BOUND('',#80,.T.);
#53=FACE_OUTER_BOUND('',#81,.T.);
#54=FACE_OUTER_BOUND('',#82,.T.);
#55=FACE_OUTER_BOUND('',#83,.T.);
#56=FACE_OUTER_BOUND('',#84,.T.);
#57=FACE_OUTER_BOUND('',#85,.T.);
#58=FACE_OUTER_BOUND('',#86,.T.);
#59=FACE_OUTER_BOUND('',#87,.T.);
#60=EDGE_LOOP('',(#312,#313,#314,#315));
#61=EDGE_LOOP('',(#316,#317,#318,#319,#320,#321,#322,#323,#324,#325,#326,
#327));
#62=EDGE_LOOP('',(#328,#329,#330,#331));
#63=EDGE_LOOP('',(#332));
#64=EDGE_LOOP('',(#333));
#65=EDGE_LOOP('',(#334));
#66=EDGE_LOOP('',(#335,#336,#337,#338,#339));
#67=EDGE_LOOP('',(#340,#341,#342,#343));
#68=EDGE_LOOP('',(#344,#345,#346,#347));
#69=EDGE_LOOP('',(#348,#349,#350,#351));
#70=EDGE_LOOP('',(#352,#353,#354,#355));
#71=EDGE_LOOP('',(#356,#357,#358,#359));
#72=EDGE_LOOP('',(#360,#361,#362,#363));
#73=EDGE_LOOP('',(#364,#365,#366,#367));
#74=EDGE_LOOP('',(#368,#369,#370,#371));
#75=EDGE_LOOP('',(#372,#373,#374,#375));
#76=EDGE_LOOP('',(#376,#377,#378,#379));
#77=EDGE_LOOP('',(#380,#381,#382,#383));
#78=EDGE_LOOP('',(#384,#385,#386,#387,#388));
#79=EDGE_LOOP('',(#389,#390,#391,#392));
#80=EDGE_LOOP('',(#393,#394,#395,#396));
#81=EDGE_LOOP('',(#397,#398,#399,#400));
#82=EDGE_LOOP('',(#401,#402,#403,#404));
#83=EDGE_LOOP('',(#405,#406,#407,#408));
#84=EDGE_LOOP('',(#409,#410,#411,#412,#413,#414));
#85=EDGE_LOOP('',(#415,#416,#417,#418));
#86=EDGE_LOOP('',(#419,#420,#421,#422,#423,#424));
#87=EDGE_LOOP('',(#425,#426,#427,#428,#429,#430,#431,#432,#433,#434,#435,
#436));
#88=EDGE_LOOP('',(#437));
#89=EDGE_LOOP('',(#438));
#90=EDGE_LOOP('',(#439));
#91=EDGE_LOOP('',(#440,#441,#442,#443));
#92=LINE('',#677,#142);
#93=LINE('',#680,#143);
#94=LINE('',#685,#144);
#95=LINE('',#687,#145);
#96=LINE('',#689,#146);
#97=LINE('',#691,#147);
#98=LINE('',#693,#148);
#99=LINE('',#697,#149);
#100=LINE('',#701,#150);
#101=LINE('',#705,#151);
#102=LINE('',#707,#152);
#103=LINE('',#709,#153);
#104=LINE('',#710,#154);
#105=LINE('',#719,#155);
#106=LINE('',#722,#156);
#107=LINE('',#726,#157);
#108=LINE('',#730,#158);
#109=LINE('',#734,#159);
#110=LINE('',#737,#160);
#111=LINE('',#739,#161);
#112=LINE('',#740,#162);
#113=LINE('',#743,#163);
#114=LINE('',#745,#164);
#115=LINE('',#746,#165);
#116=LINE('',#750,#166);
#117=LINE('',#751,#167);
#118=LINE('',#752,#168);
#119=LINE('',#755,#169);
#120=LINE('',#756,#170);
#121=LINE('',#759,#171);
#122=LINE('',#760,#172);
#123=LINE('',#762,#173);
#124=LINE('',#765,#174);
#125=LINE('',#766,#175);
#126=LINE('',#769,#176);
#127=LINE('',#770,#177);
#128=LINE('',#773,#178);
#129=LINE('',#777,#179);
#130=LINE('',#778,#180);
#131=LINE('',#782,#181);
#132=LINE('',#785,#182);
#133=LINE('',#786,#183);
#134=LINE('',#790,#184);
#135=LINE('',#793,#185);
#136=LINE('',#794,#186);
#137=LINE('',#797,#187);
#138=LINE('',#798,#188);
#139=LINE('',#801,#189);
#140=LINE('',#802,#190);
#141=LINE('',#804,#191);
#142=VECTOR('',#545,10.);
#143=VECTOR('',#548,10.);
#144=VECTOR('',#553,10.);
#145=VECTOR('',#554,10.);
#146=VECTOR('',#555,10.);
#147=VECTOR('',#556,10.);
#148=VECTOR('',#557,10.);
#149=VECTOR('',#560,10.);
#150=VECTOR('',#563,10.);
#151=VECTOR('',#566,10.);
#152=VECTOR('',#567,10.);
#153=VECTOR('',#568,10.);
#154=VECTOR('',#569,10.);
#155=VECTOR('',#578,10.);
#156=VECTOR('',#581,10.);
#157=VECTOR('',#586,1.1);
#158=VECTOR('',#591,1.09999999999999);
#159=VECTOR('',#596,1.09999999999999);
#160=VECTOR('',#599,10.);
#161=VECTOR('',#600,10.);
#162=VECTOR('',#601,10.);
#163=VECTOR('',#604,10.);
#164=VECTOR('',#605,10.);
#165=VECTOR('',#606,10.);
#166=VECTOR('',#609,10.);
#167=VECTOR('',#610,10.);
#168=VECTOR('',#611,10.);
#169=VECTOR('',#614,10.);
#170=VECTOR('',#615,10.);
#171=VECTOR('',#618,10.);
#172=VECTOR('',#619,10.);
#173=VECTOR('',#622,10.);
#174=VECTOR('',#625,10.);
#175=VECTOR('',#626,10.);
#176=VECTOR('',#629,10.);
#177=VECTOR('',#630,10.);
#178=VECTOR('',#633,10.);
#179=VECTOR('',#638,10.);
#180=VECTOR('',#639,10.);
#181=VECTOR('',#644,10.);
#182=VECTOR('',#647,10.);
#183=VECTOR('',#648,10.);
#184=VECTOR('',#653,10.);
#185=VECTOR('',#656,10.);
#186=VECTOR('',#657,10.);
#187=VECTOR('',#660,10.);
#188=VECTOR('',#661,10.);
#189=VECTOR('',#664,10.);
#190=VECTOR('',#665,10.);
#191=VECTOR('',#668,10.);
#192=ELLIPSE('',#500,5.66835979517339,4.);
#193=ELLIPSE('',#501,5.66835979517339,4.);
#194=ELLIPSE('',#503,4.00813564937228,4.);
#195=ELLIPSE('',#504,5.01016956171535,5.);
#196=ELLIPSE('',#505,5.01016956171535,5.);
#197=ELLIPSE('',#506,4.00813564937228,4.);
#198=ELLIPSE('',#511,4.00813564937228,4.);
#199=ELLIPSE('',#527,4.00813564937228,4.);
#200=ELLIPSE('',#530,5.01016956171535,5.);
#201=ELLIPSE('',#533,5.01016956171535,5.);
#202=VERTEX_POINT('',#673);
#203=VERTEX_POINT('',#674);
#204=VERTEX_POINT('',#676);
#205=VERTEX_POINT('',#678);
#206=VERTEX_POINT('',#682);
#207=VERTEX_POINT('',#684);
#208=VERTEX_POINT('',#686);
#209=VERTEX_POINT('',#688);
#210=VERTEX_POINT('',#690);
#211=VERTEX_POINT('',#692);
#212=VERTEX_POINT('',#694);
#213=VERTEX_POINT('',#696);
#214=VERTEX_POINT('',#698);
#215=VERTEX_POINT('',#700);
#216=VERTEX_POINT('',#703);
#217=VERTEX_POINT('',#704);
#218=VERTEX_POINT('',#706);
#219=VERTEX_POINT('',#708);
#220=VERTEX_POINT('',#711);
#221=VERTEX_POINT('',#713);
#222=VERTEX_POINT('',#715);
#223=VERTEX_POINT('',#718);
#224=VERTEX_POINT('',#720);
#225=VERTEX_POINT('',#724);
#226=VERTEX_POINT('',#728);
#227=VERTEX_POINT('',#732);
#228=VERTEX_POINT('',#736);
#229=VERTEX_POINT('',#738);
#230=VERTEX_POINT('',#742);
#231=VERTEX_POINT('',#744);
#232=VERTEX_POINT('',#748);
#233=VERTEX_POINT('',#749);
#234=VERTEX_POINT('',#754);
#235=VERTEX_POINT('',#758);
#236=VERTEX_POINT('',#764);
#237=VERTEX_POINT('',#768);
#238=VERTEX_POINT('',#772);
#239=VERTEX_POINT('',#776);
#240=VERTEX_POINT('',#780);
#241=VERTEX_POINT('',#784);
#242=VERTEX_POINT('',#788);
#243=VERTEX_POINT('',#792);
#244=VERTEX_POINT('',#796);
#245=VERTEX_POINT('',#800);
#246=EDGE_CURVE('',#202,#203,#192,.T.);
#247=EDGE_CURVE('',#203,#204,#92,.T.);
#248=EDGE_CURVE('',#204,#205,#193,.T.);
#249=EDGE_CURVE('',#205,#202,#93,.T.);
#250=EDGE_CURVE('',#203,#206,#194,.T.);
#251=EDGE_CURVE('',#206,#207,#94,.T.);
#252=EDGE_CURVE('',#207,#208,#95,.T.);
#253=EDGE_CURVE('',#208,#209,#96,.T.);
#254=EDGE_CURVE('',#209,#210,#97,.T.);
#255=EDGE_CURVE('',#210,#211,#98,.T.);
#256=EDGE_CURVE('',#211,#212,#195,.T.);
#257=EDGE_CURVE('',#212,#213,#99,.T.);
#258=EDGE_CURVE('',#213,#214,#196,.T.);
#259=EDGE_CURVE('',#214,#215,#100,.T.);
#260=EDGE_CURVE('',#215,#204,#197,.T.);
#261=EDGE_CURVE('',#216,#217,#101,.T.);
#262=EDGE_CURVE('',#217,#218,#102,.T.);
#263=EDGE_CURVE('',#218,#219,#103,.T.);
#264=EDGE_CURVE('',#219,#216,#104,.T.);
#265=EDGE_CURVE('',#220,#220,#22,.T.);
#266=EDGE_CURVE('',#221,#221,#23,.T.);
#267=EDGE_CURVE('',#222,#222,#24,.T.);
#268=EDGE_CURVE('',#223,#202,#105,.T.);
#269=EDGE_CURVE('',#224,#223,#198,.T.);
#270=EDGE_CURVE('',#224,#206,#106,.T.);
#271=EDGE_CURVE('',#225,#225,#25,.T.);
#272=EDGE_CURVE('',#225,#222,#107,.T.);
#273=EDGE_CURVE('',#226,#226,#26,.T.);
#274=EDGE_CURVE('',#226,#221,#108,.T.);
#275=EDGE_CURVE('',#227,#227,#27,.T.);
#276=EDGE_CURVE('',#227,#220,#109,.T.);
#277=EDGE_CURVE('',#228,#208,#110,.T.);
#278=EDGE_CURVE('',#228,#229,#111,.T.);
#279=EDGE_CURVE('',#229,#209,#112,.T.);
#280=EDGE_CURVE('',#230,#228,#113,.T.);
#281=EDGE_CURVE('',#231,#230,#114,.T.);
#282=EDGE_CURVE('',#229,#231,#115,.T.);
#283=EDGE_CURVE('',#232,#233,#116,.T.);
#284=EDGE_CURVE('',#232,#216,#117,.T.);
#285=EDGE_CURVE('',#233,#219,#118,.T.);
#286=EDGE_CURVE('',#233,#234,#119,.T.);
#287=EDGE_CURVE('',#234,#218,#120,.T.);
#288=EDGE_CURVE('',#234,#235,#121,.T.);
#289=EDGE_CURVE('',#235,#217,#122,.T.);
#290=EDGE_CURVE('',#235,#232,#123,.T.);
#291=EDGE_CURVE('',#236,#224,#124,.T.);
#292=EDGE_CURVE('',#236,#207,#125,.T.);
#293=EDGE_CURVE('',#237,#205,#126,.T.);
#294=EDGE_CURVE('',#223,#237,#127,.T.);
#295=EDGE_CURVE('',#238,#215,#128,.T.);
#296=EDGE_CURVE('',#237,#238,#199,.T.);
#297=EDGE_CURVE('',#238,#239,#129,.T.);
#298=EDGE_CURVE('',#239,#214,#130,.T.);
#299=EDGE_CURVE('',#239,#240,#200,.T.);
#300=EDGE_CURVE('',#240,#213,#131,.T.);
#301=EDGE_CURVE('',#240,#241,#132,.T.);
#302=EDGE_CURVE('',#241,#212,#133,.T.);
#303=EDGE_CURVE('',#241,#242,#201,.T.);
#304=EDGE_CURVE('',#242,#211,#134,.T.);
#305=EDGE_CURVE('',#242,#243,#135,.T.);
#306=EDGE_CURVE('',#243,#210,#136,.T.);
#307=EDGE_CURVE('',#243,#244,#137,.T.);
#308=EDGE_CURVE('',#244,#231,#138,.T.);
#309=EDGE_CURVE('',#244,#245,#139,.T.);
#310=EDGE_CURVE('',#245,#230,#140,.T.);
#311=EDGE_CURVE('',#245,#236,#141,.T.);
#312=ORIENTED_EDGE('',*,*,#246,.T.);
#313=ORIENTED_EDGE('',*,*,#247,.T.);
#314=ORIENTED_EDGE('',*,*,#248,.T.);
#315=ORIENTED_EDGE('',*,*,#249,.T.);
#316=ORIENTED_EDGE('',*,*,#247,.F.);
#317=ORIENTED_EDGE('',*,*,#250,.T.);
#318=ORIENTED_EDGE('',*,*,#251,.T.);
#319=ORIENTED_EDGE('',*,*,#252,.T.);
#320=ORIENTED_EDGE('',*,*,#253,.T.);
#321=ORIENTED_EDGE('',*,*,#254,.T.);
#322=ORIENTED_EDGE('',*,*,#255,.T.);
#323=ORIENTED_EDGE('',*,*,#256,.T.);
#324=ORIENTED_EDGE('',*,*,#257,.T.);
#325=ORIENTED_EDGE('',*,*,#258,.T.);
#326=ORIENTED_EDGE('',*,*,#259,.T.);
#327=ORIENTED_EDGE('',*,*,#260,.T.);
#328=ORIENTED_EDGE('',*,*,#261,.T.);
#329=ORIENTED_EDGE('',*,*,#262,.T.);
#330=ORIENTED_EDGE('',*,*,#263,.T.);
#331=ORIENTED_EDGE('',*,*,#264,.T.);
#332=ORIENTED_EDGE('',*,*,#265,.T.);
#333=ORIENTED_EDGE('',*,*,#266,.T.);
#334=ORIENTED_EDGE('',*,*,#267,.T.);
#335=ORIENTED_EDGE('',*,*,#246,.F.);
#336=ORIENTED_EDGE('',*,*,#268,.F.);
#337=ORIENTED_EDGE('',*,*,#269,.F.);
#338=ORIENTED_EDGE('',*,*,#270,.T.);
#339=ORIENTED_EDGE('',*,*,#250,.F.);
#340=ORIENTED_EDGE('',*,*,#271,.F.);
#341=ORIENTED_EDGE('',*,*,#272,.T.);
#342=ORIENTED_EDGE('',*,*,#267,.F.);
#343=ORIENTED_EDGE('',*,*,#272,.F.);
#344=ORIENTED_EDGE('',*,*,#273,.F.);
#345=ORIENTED_EDGE('',*,*,#274,.T.);
#346=ORIENTED_EDGE('',*,*,#266,.F.);
#347=ORIENTED_EDGE('',*,*,#274,.F.);
#348=ORIENTED_EDGE('',*,*,#275,.F.);
#349=ORIENTED_EDGE('',*,*,#276,.T.);
#350=ORIENTED_EDGE('',*,*,#265,.F.);
#351=ORIENTED_EDGE('',*,*,#276,.F.);
#352=ORIENTED_EDGE('',*,*,#253,.F.);
#353=ORIENTED_EDGE('',*,*,#277,.F.);
#354=ORIENTED_EDGE('',*,*,#278,.T.);
#355=ORIENTED_EDGE('',*,*,#279,.T.);
#356=ORIENTED_EDGE('',*,*,#278,.F.);
#357=ORIENTED_EDGE('',*,*,#280,.F.);
#358=ORIENTED_EDGE('',*,*,#281,.F.);
#359=ORIENTED_EDGE('',*,*,#282,.F.);
#360=ORIENTED_EDGE('',*,*,#283,.F.);
#361=ORIENTED_EDGE('',*,*,#284,.T.);
#362=ORIENTED_EDGE('',*,*,#264,.F.);
#363=ORIENTED_EDGE('',*,*,#285,.F.);
#364=ORIENTED_EDGE('',*,*,#286,.F.);
#365=ORIENTED_EDGE('',*,*,#285,.T.);
#366=ORIENTED_EDGE('',*,*,#263,.F.);
#367=ORIENTED_EDGE('',*,*,#287,.F.);
#368=ORIENTED_EDGE('',*,*,#288,.F.);
#369=ORIENTED_EDGE('',*,*,#287,.T.);
#370=ORIENTED_EDGE('',*,*,#262,.F.);
#371=ORIENTED_EDGE('',*,*,#289,.F.);
#372=ORIENTED_EDGE('',*,*,#290,.F.);
#373=ORIENTED_EDGE('',*,*,#289,.T.);
#374=ORIENTED_EDGE('',*,*,#261,.F.);
#375=ORIENTED_EDGE('',*,*,#284,.F.);
#376=ORIENTED_EDGE('',*,*,#291,.F.);
#377=ORIENTED_EDGE('',*,*,#292,.T.);
#378=ORIENTED_EDGE('',*,*,#251,.F.);
#379=ORIENTED_EDGE('',*,*,#270,.F.);
#380=ORIENTED_EDGE('',*,*,#249,.F.);
#381=ORIENTED_EDGE('',*,*,#293,.F.);
#382=ORIENTED_EDGE('',*,*,#294,.F.);
#383=ORIENTED_EDGE('',*,*,#268,.T.);
#384=ORIENTED_EDGE('',*,*,#248,.F.);
#385=ORIENTED_EDGE('',*,*,#260,.F.);
#386=ORIENTED_EDGE('',*,*,#295,.F.);
#387=ORIENTED_EDGE('',*,*,#296,.F.);
#388=ORIENTED_EDGE('',*,*,#293,.T.);
#389=ORIENTED_EDGE('',*,*,#297,.F.);
#390=ORIENTED_EDGE('',*,*,#295,.T.);
#391=ORIENTED_EDGE('',*,*,#259,.F.);
#392=ORIENTED_EDGE('',*,*,#298,.F.);
#393=ORIENTED_EDGE('',*,*,#299,.F.);
#394=ORIENTED_EDGE('',*,*,#298,.T.);
#395=ORIENTED_EDGE('',*,*,#258,.F.);
#396=ORIENTED_EDGE('',*,*,#300,.F.);
#397=ORIENTED_EDGE('',*,*,#301,.F.);
#398=ORIENTED_EDGE('',*,*,#300,.T.);
#399=ORIENTED_EDGE('',*,*,#257,.F.);
#400=ORIENTED_EDGE('',*,*,#302,.F.);
#401=ORIENTED_EDGE('',*,*,#303,.F.);
#402=ORIENTED_EDGE('',*,*,#302,.T.);
#403=ORIENTED_EDGE('',*,*,#256,.F.);
#404=ORIENTED_EDGE('',*,*,#304,.F.);
#405=ORIENTED_EDGE('',*,*,#305,.F.);
#406=ORIENTED_EDGE('',*,*,#304,.T.);
#407=ORIENTED_EDGE('',*,*,#255,.F.);
#408=ORIENTED_EDGE('',*,*,#306,.F.);
#409=ORIENTED_EDGE('',*,*,#307,.F.);
#410=ORIENTED_EDGE('',*,*,#306,.T.);
#411=ORIENTED_EDGE('',*,*,#254,.F.);
#412=ORIENTED_EDGE('',*,*,#279,.F.);
#413=ORIENTED_EDGE('',*,*,#282,.T.);
#414=ORIENTED_EDGE('',*,*,#308,.F.);
#415=ORIENTED_EDGE('',*,*,#309,.F.);
#416=ORIENTED_EDGE('',*,*,#308,.T.);
#417=ORIENTED_EDGE('',*,*,#281,.T.);
#418=ORIENTED_EDGE('',*,*,#310,.F.);
#419=ORIENTED_EDGE('',*,*,#311,.F.);
#420=ORIENTED_EDGE('',*,*,#310,.T.);
#421=ORIENTED_EDGE('',*,*,#280,.T.);
#422=ORIENTED_EDGE('',*,*,#277,.T.);
#423=ORIENTED_EDGE('',*,*,#252,.F.);
#424=ORIENTED_EDGE('',*,*,#292,.F.);
#425=ORIENTED_EDGE('',*,*,#311,.T.);
#426=ORIENTED_EDGE('',*,*,#291,.T.);
#427=ORIENTED_EDGE('',*,*,#269,.T.);
#428=ORIENTED_EDGE('',*,*,#294,.T.);
#429=ORIENTED_EDGE('',*,*,#296,.T.);
#430=ORIENTED_EDGE('',*,*,#297,.T.);
#431=ORIENTED_EDGE('',*,*,#299,.T.);
#432=ORIENTED_EDGE('',*,*,#301,.T.);
#433=ORIENTED_EDGE('',*,*,#303,.T.);
#434=ORIENTED_EDGE('',*,*,#305,.T.);
#435=ORIENTED_EDGE('',*,*,#307,.T.);
#436=ORIENTED_EDGE('',*,*,#309,.T.);
#437=ORIENTED_EDGE('',*,*,#271,.T.);
#438=ORIENTED_EDGE('',*,*,#273,.T.);
#439=ORIENTED_EDGE('',*,*,#275,.T.);
#440=ORIENTED_EDGE('',*,*,#290,.T.);
#441=ORIENTED_EDGE('',*,*,#283,.T.);
#442=ORIENTED_EDGE('',*,*,#286,.T.);
#443=ORIENTED_EDGE('',*,*,#288,.T.);
#444=PLANE('',#499);
#445=PLANE('',#502);
#446=PLANE('',#518);
#447=PLANE('',#519);
#448=PLANE('',#520);
#449=PLANE('',#521);
#450=PLANE('',#522);
#451=PLANE('',#523);
#452=PLANE('',#524);
#453=PLANE('',#525);
#454=PLANE('',#528);
#455=PLANE('',#531);
#456=PLANE('',#534);
#457=PLANE('',#535);
#458=PLANE('',#536);
#459=PLANE('',#537);
#460=PLANE('',#538);
#461=ADVANCED_FACE('',(#36),#444,.T.);
#462=ADVANCED_FACE('',(#37,#28,#29,#30,#31),#445,.T.);
#463=ADVANCED_FACE('',(#38),#15,.F.);
#464=ADVANCED_FACE('',(#39),#16,.F.);
#465=ADVANCED_FACE('',(#40),#17,.F.);
#466=ADVANCED_FACE('',(#41),#18,.F.);
#467=ADVANCED_FACE('',(#42),#446,.T.);
#468=ADVANCED_FACE('',(#43),#447,.T.);
#469=ADVANCED_FACE('',(#44),#448,.T.);
#470=ADVANCED_FACE('',(#45),#449,.T.);
#471=ADVANCED_FACE('',(#46),#450,.T.);
#472=ADVANCED_FACE('',(#47),#451,.T.);
#473=ADVANCED_FACE('',(#48),#452,.T.);
#474=ADVANCED_FACE('',(#49),#453,.T.);
#475=ADVANCED_FACE('',(#50),#19,.F.);
#476=ADVANCED_FACE('',(#51),#454,.T.);
#477=ADVANCED_FACE('',(#52),#20,.T.);
#478=ADVANCED_FACE('',(#53),#455,.T.);
#479=ADVANCED_FACE('',(#54),#21,.T.);
#480=ADVANCED_FACE('',(#55),#456,.T.);
#481=ADVANCED_FACE('',(#56),#457,.T.);
#482=ADVANCED_FACE('',(#57),#458,.T.);
#483=ADVANCED_FACE('',(#58),#459,.T.);
#484=ADVANCED_FACE('',(#59,#32,#33,#34,#35),#460,.F.);
#485=CLOSED_SHELL('',(#461,#462,#463,#464,#465,#466,#467,#468,#469,#470,
#471,#472,#473,#474,#475,#476,#477,#478,#479,#480,#481,#482,#483,#484));
#486=DERIVED_UNIT_ELEMENT(#488,1.);
#487=DERIVED_UNIT_ELEMENT(#811,-3.);
#488=(
MASS_UNIT()
NAMED_UNIT(*)
SI_UNIT(.KILO.,.GRAM.)
);
#489=DERIVED_UNIT((#486,#487));
#490=MEASURE_REPRESENTATION_ITEM('density measure',
POSITIVE_RATIO_MEASURE(7850.),#489);
#491=PROPERTY_DEFINITION_REPRESENTATION(#496,#493);
#492=PROPERTY_DEFINITION_REPRESENTATION(#497,#494);
#493=REPRESENTATION('material name',(#495),#808);
#494=REPRESENTATION('density',(#490),#808);
#495=DESCRIPTIVE_REPRESENTATION_ITEM('\X2\92FC\X0\','\X2\92FC\X0\');
#496=PROPERTY_DEFINITION('material property','material name',#818);
#497=PROPERTY_DEFINITION('material property','density of part',#818);
#498=AXIS2_PLACEMENT_3D('',#671,#539,#540);
#499=AXIS2_PLACEMENT_3D('',#672,#541,#542);
#500=AXIS2_PLACEMENT_3D('',#675,#543,#544);
#501=AXIS2_PLACEMENT_3D('',#679,#546,#547);
#502=AXIS2_PLACEMENT_3D('',#681,#549,#550);
#503=AXIS2_PLACEMENT_3D('',#683,#551,#552);
#504=AXIS2_PLACEMENT_3D('',#695,#558,#559);
#505=AXIS2_PLACEMENT_3D('',#699,#561,#562);
#506=AXIS2_PLACEMENT_3D('',#702,#564,#565);
#507=AXIS2_PLACEMENT_3D('',#712,#570,#571);
#508=AXIS2_PLACEMENT_3D('',#714,#572,#573);
#509=AXIS2_PLACEMENT_3D('',#716,#574,#575);
#510=AXIS2_PLACEMENT_3D('',#717,#576,#577);
#511=AXIS2_PLACEMENT_3D('',#721,#579,#580);
#512=AXIS2_PLACEMENT_3D('',#723,#582,#583);
#513=AXIS2_PLACEMENT_3D('',#725,#584,#585);
#514=AXIS2_PLACEMENT_3D('',#727,#587,#588);
#515=AXIS2_PLACEMENT_3D('',#729,#589,#590);
#516=AXIS2_PLACEMENT_3D('',#731,#592,#593);
#517=AXIS2_PLACEMENT_3D('',#733,#594,#595);
#518=AXIS2_PLACEMENT_3D('',#735,#597,#598);
#519=AXIS2_PLACEMENT_3D('',#741,#602,#603);
#520=AXIS2_PLACEMENT_3D('',#747,#607,#608);
#521=AXIS2_PLACEMENT_3D('',#753,#612,#613);
#522=AXIS2_PLACEMENT_3D('',#757,#616,#617);
#523=AXIS2_PLACEMENT_3D('',#761,#620,#621);
#524=AXIS2_PLACEMENT_3D('',#763,#623,#624);
#525=AXIS2_PLACEMENT_3D('',#767,#627,#628);
#526=AXIS2_PLACEMENT_3D('',#771,#631,#632);
#527=AXIS2_PLACEMENT_3D('',#774,#634,#635);
#528=AXIS2_PLACEMENT_3D('',#775,#636,#637);
#529=AXIS2_PLACEMENT_3D('',#779,#640,#641);
#530=AXIS2_PLACEMENT_3D('',#781,#642,#643);
#531=AXIS2_PLACEMENT_3D('',#783,#645,#646);
#532=AXIS2_PLACEMENT_3D('',#787,#649,#650);
#533=AXIS2_PLACEMENT_3D('',#789,#651,#652);
#534=AXIS2_PLACEMENT_3D('',#791,#654,#655);
#535=AXIS2_PLACEMENT_3D('',#795,#658,#659);
#536=AXIS2_PLACEMENT_3D('',#799,#662,#663);
#537=AXIS2_PLACEMENT_3D('',#803,#666,#667);
#538=AXIS2_PLACEMENT_3D('',#805,#669,#670);
#539=DIRECTION('axis',(0.,0.,1.));
#540=DIRECTION('refdir',(1.,0.,0.));
#541=DIRECTION('center_axis',(-0.0450302557070034,-0.707106781186549,0.705671507197903));
#542=DIRECTION('ref_axis',(0.997970216059539,0.,0.0636823983379728));
#543=DIRECTION('center_axis',(0.0450302557070034,0.707106781186549,-0.705671507197903));
#544=DIRECTION('ref_axis',(-0.0448480066543627,-0.704244937766747,-0.708539147774518));
#545=DIRECTION('',(-0.997970216059539,4.42082598208256E-16,-0.0636823983379724));
#546=DIRECTION('center_axis',(0.0450302557070034,0.707106781186549,-0.705671507197903));
#547=DIRECTION('ref_axis',(0.0448480066543626,0.704244937766747,0.708539147774518));
#548=DIRECTION('',(0.997970216059539,-4.42082598208256E-16,0.0636823983379724));
#549=DIRECTION('center_axis',(-0.0636823983379724,0.,0.99797021605954));
#550=DIRECTION('ref_axis',(0.997970216059539,0.,0.0636823983379724));
#551=DIRECTION('center_axis',(0.0636823983379724,0.,-0.99797021605954));
#552=DIRECTION('ref_axis',(-0.997970216059539,0.,-0.0636823983379724));
#553=DIRECTION('',(0.,1.,0.));
#554=DIRECTION('',(0.997970216059539,0.,0.0636823983379724));
#555=DIRECTION('',(0.,1.,0.));
#556=DIRECTION('',(-0.997970216059539,0.,-0.0636823983379724));
#557=DIRECTION('',(0.,1.,0.));
#558=DIRECTION('center_axis',(-0.0636823983379724,0.,0.99797021605954));
#559=DIRECTION('ref_axis',(0.997970216059539,0.,0.0636823983379724));
#560=DIRECTION('',(-0.997970216059539,4.20581546575352E-16,-0.0636823983379724));
#561=DIRECTION('center_axis',(-0.0636823983379724,0.,0.99797021605954));
#562=DIRECTION('ref_axis',(0.997970216059539,0.,0.0636823983379724));
#563=DIRECTION('',(0.,-1.,0.));
#564=DIRECTION('center_axis',(0.0636823983379724,0.,-0.99797021605954));
#565=DIRECTION('ref_axis',(0.99797021605954,6.47848383951139E-17,0.0636823983379724));
#566=DIRECTION('',(-1.50220451534905E-15,1.,-9.58585584941461E-17));
#567=DIRECTION('',(0.997970216059539,0.,0.0636823983379724));
#568=DIRECTION('',(0.,-1.,0.));
#569=DIRECTION('',(-0.997970216059539,0.,-0.0636823983379724));
#570=DIRECTION('center_axis',(0.0636823983379724,0.,-0.99797021605954));
#571=DIRECTION('ref_axis',(0.997970216059539,0.,0.0636823983379759));
#572=DIRECTION('center_axis',(0.0636823983379724,0.,-0.99797021605954));
#573=DIRECTION('ref_axis',(0.997970216059539,0.,0.0636823983379759));
#574=DIRECTION('center_axis',(0.0636823983379724,0.,-0.99797021605954));
#575=DIRECTION('ref_axis',(0.997970216059539,0.,0.0636823983379759));
#576=DIRECTION('center_axis',(0.,0.,1.));
#577=DIRECTION('ref_axis',(-1.,0.,0.));
#578=DIRECTION('',(0.,0.,1.));
#579=DIRECTION('center_axis',(-0.0636823983379724,0.,0.99797021605954));
#580=DIRECTION('ref_axis',(-0.997970216059539,0.,-0.0636823983379724));
#581=DIRECTION('',(0.,0.,1.));
#582=DIRECTION('center_axis',(-0.0636823983379759,0.,0.997970216059539));
#583=DIRECTION('ref_axis',(0.997970216059539,0.,0.0636823983379759));
#584=DIRECTION('center_axis',(-0.0636823983379724,0.,0.99797021605954));
#585=DIRECTION('ref_axis',(0.997970216059539,0.,0.0636823983379759));
#586=DIRECTION('',(-0.0636823983379759,0.,0.997970216059539));
#587=DIRECTION('center_axis',(-0.0636823983379759,0.,0.997970216059539));
#588=DIRECTION('ref_axis',(0.997970216059539,0.,0.0636823983379759));
#589=DIRECTION('center_axis',(-0.0636823983379724,0.,0.99797021605954));
#590=DIRECTION('ref_axis',(0.997970216059539,0.,0.0636823983379759));
#591=DIRECTION('',(-0.0636823983379759,0.,0.997970216059539));
#592=DIRECTION('center_axis',(-0.0636823983379759,0.,0.997970216059539));
#593=DIRECTION('ref_axis',(0.997970216059539,0.,0.0636823983379759));
#594=DIRECTION('center_axis',(-0.0636823983379724,0.,0.99797021605954));
#595=DIRECTION('ref_axis',(0.997970216059539,0.,0.0636823983379759));
#596=DIRECTION('',(-0.0636823983379759,0.,0.997970216059539));
#597=DIRECTION('center_axis',(-1.,0.,0.));
#598=DIRECTION('ref_axis',(0.,1.,0.));
#599=DIRECTION('',(0.,0.,-1.));
#600=DIRECTION('',(0.,1.,0.));
#601=DIRECTION('',(0.,0.,-1.));
#602=DIRECTION('center_axis',(0.,0.,1.));
#603=DIRECTION('ref_axis',(1.,0.,0.));
#604=DIRECTION('',(-1.,0.,0.));
#605=DIRECTION('',(0.,-1.,0.));
#606=DIRECTION('',(1.,0.,0.));
#607=DIRECTION('center_axis',(0.,1.,0.));
#608=DIRECTION('ref_axis',(-0.997970216059539,0.,-0.0636823983379724));
#609=DIRECTION('',(0.997970216059539,0.,0.0636823983379724));
#610=DIRECTION('',(0.,0.,1.));
#611=DIRECTION('',(0.,0.,1.));
#612=DIRECTION('center_axis',(-1.,0.,0.));
#613=DIRECTION('ref_axis',(0.,-1.,0.));
#614=DIRECTION('',(0.,1.,0.));
#615=DIRECTION('',(0.,0.,1.));
#616=DIRECTION('center_axis',(0.,-1.,0.));
#617=DIRECTION('ref_axis',(0.997970216059539,0.,0.0636823983379724));
#618=DIRECTION('',(-0.997970216059539,0.,-0.0636823983379724));
#619=DIRECTION('',(0.,0.,1.));
#620=DIRECTION('center_axis',(1.,1.50220451534905E-15,0.));
#621=DIRECTION('ref_axis',(-1.50220451534905E-15,1.,-9.58585584941461E-17));
#622=DIRECTION('',(1.50220451534905E-15,-1.,9.58585584941461E-17));
#623=DIRECTION('center_axis',(1.,0.,0.));
#624=DIRECTION('ref_axis',(0.,1.,0.));
#625=DIRECTION('',(0.,-1.,0.));
#626=DIRECTION('',(0.,0.,1.));
#627=DIRECTION('center_axis',(-4.42981755461409E-16,-1.,0.));
#628=DIRECTION('ref_axis',(0.997970216059539,-4.42082598208256E-16,0.0636823983379724));
#629=DIRECTION('',(0.,0.,1.));
#630=DIRECTION('',(-0.997970216059539,4.42082598208256E-16,-0.0636823983379724));
#631=DIRECTION('center_axis',(0.,0.,1.));
#632=DIRECTION('ref_axis',(1.,6.49166050775696E-17,0.));
#633=DIRECTION('',(0.,0.,1.));
#634=DIRECTION('center_axis',(-0.0636823983379724,0.,0.99797021605954));
#635=DIRECTION('ref_axis',(0.99797021605954,6.47848383951139E-17,0.0636823983379724));
#636=DIRECTION('center_axis',(-1.,0.,0.));
#637=DIRECTION('ref_axis',(0.,-1.,0.));
#638=DIRECTION('',(0.,1.,0.));
#639=DIRECTION('',(0.,0.,1.));
#640=DIRECTION('center_axis',(0.,0.,1.));
#641=DIRECTION('ref_axis',(1.,0.,0.));
#642=DIRECTION('center_axis',(0.0636823983379724,0.,-0.99797021605954));
#643=DIRECTION('ref_axis',(0.997970216059539,0.,0.0636823983379724));
#644=DIRECTION('',(0.,0.,1.));
#645=DIRECTION('center_axis',(4.21436972574199E-16,1.,0.));
#646=DIRECTION('ref_axis',(-0.997970216059539,4.20581546575352E-16,-0.0636823983379724));
#647=DIRECTION('',(0.997970216059539,-4.20581546575352E-16,0.0636823983379724));
#648=DIRECTION('',(0.,0.,1.));
#649=DIRECTION('center_axis',(0.,0.,1.));
#650=DIRECTION('ref_axis',(1.,0.,0.));
#651=DIRECTION('center_axis',(0.0636823983379724,0.,-0.99797021605954));
#652=DIRECTION('ref_axis',(0.997970216059539,0.,0.0636823983379724));
#653=DIRECTION('',(0.,0.,1.));
#654=DIRECTION('center_axis',(1.,0.,0.));
#655=DIRECTION('ref_axis',(0.,1.,0.));
#656=DIRECTION('',(0.,-1.,0.));
#657=DIRECTION('',(0.,0.,1.));
#658=DIRECTION('center_axis',(0.,1.,0.));
#659=DIRECTION('ref_axis',(-0.997970216059539,0.,-0.0636823983379724));
#660=DIRECTION('',(0.997970216059539,0.,0.0636823983379724));
#661=DIRECTION('',(0.,0.,1.));
#662=DIRECTION('center_axis',(1.,0.,0.));
#663=DIRECTION('ref_axis',(0.,1.,0.));
#664=DIRECTION('',(0.,-1.,0.));
#665=DIRECTION('',(0.,0.,1.));
#666=DIRECTION('center_axis',(0.,-1.,0.));
#667=DIRECTION('ref_axis',(0.997970216059539,0.,0.0636823983379724));
#668=DIRECTION('',(-0.997970216059539,0.,-0.0636823983379724));
#669=DIRECTION('center_axis',(-0.0636823983379724,0.,0.99797021605954));
#670=DIRECTION('ref_axis',(0.997970216059539,0.,0.0636823983379724));
#671=CARTESIAN_POINT('',(0.,0.,0.));
#672=CARTESIAN_POINT('Origin',(-71.758946247964,-68.825,-10.5885080794667));
#673=CARTESIAN_POINT('',(-27.9638194417316,-69.075,-8.04436530879202));
#674=CARTESIAN_POINT('',(-29.1821307505706,-68.575,-7.62109113975043));
#675=CARTESIAN_POINT('Origin',(-27.075,-65.175,-4.07971577309602));
#676=CARTESIAN_POINT('',(-85.1178692494295,-68.575,-11.1904581640269));
#677=CARTESIAN_POINT('',(-71.7748668475485,-68.575,-10.3390155254518));
#678=CARTESIAN_POINT('',(-86.3361805582685,-69.075,-11.7692179073284));
#679=CARTESIAN_POINT('Origin',(-87.225,-65.175,-7.91800292674842));
#680=CARTESIAN_POINT('',(-71.7430256483795,-69.075,-10.8380006334816));
#681=CARTESIAN_POINT('Origin',(-57.15,-56.980625,-9.40577465188867));
#682=CARTESIAN_POINT('',(-31.075,-65.175,-7.74187876607842));
#683=CARTESIAN_POINT('Origin',(-27.075,-65.175,-7.48663107506247));
#684=CARTESIAN_POINT('',(-31.075,-60.00625,-7.74187876607842));
#685=CARTESIAN_POINT('',(-31.075,-58.4934375,-7.74187876607842));
#686=CARTESIAN_POINT('',(-30.975,-60.00625,-7.73549757380302));
#687=CARTESIAN_POINT('',(-42.8761164598839,-60.00625,-8.49493069802735));
#688=CARTESIAN_POINT('',(-30.975,-54.29375,-7.73549757380302));
#689=CARTESIAN_POINT('',(-30.975,-58.4934375,-7.73549757380302));
#690=CARTESIAN_POINT('',(-31.075,-54.29375,-7.74187876607842));
#691=CARTESIAN_POINT('',(-43.8347130913205,-54.29375,-8.55610059222482));
#692=CARTESIAN_POINT('',(-31.075,-49.88625,-7.74187876607842));
#693=CARTESIAN_POINT('',(-31.075,-53.4334375,-7.74187876607842));
#694=CARTESIAN_POINT('',(-36.075,-44.88625,-8.06093837984836));
#695=CARTESIAN_POINT('Origin',(-36.075,-49.88625,-8.06093837984836));
#696=CARTESIAN_POINT('',(-78.225,-44.88625,-10.750610923929));
#697=CARTESIAN_POINT('',(-67.3141059080664,-44.88625,-10.0543657929576));
#698=CARTESIAN_POINT('',(-83.225,-49.88625,-11.0696705376989));
#699=CARTESIAN_POINT('Origin',(-78.225,-49.88625,-10.750610923929));
#700=CARTESIAN_POINT('',(-83.225,-65.175,-11.0696705376989));
#701=CARTESIAN_POINT('',(-83.225,-61.0778125,-11.0696705376989));
#702=CARTESIAN_POINT('Origin',(-87.225,-65.175,-11.3249182287149));
#703=CARTESIAN_POINT('',(-47.6499999999999,-60.10625,-8.79956138572577));
#704=CARTESIAN_POINT('',(-47.6499999999999,-54.19375,-8.79956138572577));
#705=CARTESIAN_POINT('',(-47.6499999999999,-55.5871875,-8.79956138572577));
#706=CARTESIAN_POINT('',(-41.5499999999999,-54.19375,-8.41030865692644));
#707=CARTESIAN_POINT('',(-49.0509726831638,-54.19375,-8.88896014636427));
#708=CARTESIAN_POINT('',(-41.5499999999999,-60.10625,-8.41030865692644));
#709=CARTESIAN_POINT('',(-41.5499999999999,-58.5434375,-8.41030865692644));
#710=CARTESIAN_POINT('',(-52.0886035671966,-60.10625,-9.08279721369131));
#711=CARTESIAN_POINT('',(-42.7060429362488,-64.15,-8.48407797947461));
#712=CARTESIAN_POINT('Origin',(-41.6082756985833,-64.15,-8.41402734130283));
#713=CARTESIAN_POINT('',(-42.7060429362488,-50.15,-8.48407797947461));
#714=CARTESIAN_POINT('Origin',(-41.6082756985833,-50.15,-8.41402734130283));
#715=CARTESIAN_POINT('',(-67.2145680287987,-57.15,-10.0480140894947));
#716=CARTESIAN_POINT('Origin',(-66.1168007911332,-57.15,-9.97796345132289));
#717=CARTESIAN_POINT('Origin',(-27.075,-65.175,-8.48663107506247));
#718=CARTESIAN_POINT('',(-27.9638194417316,-69.075,-8.54334835262049));
#719=CARTESIAN_POINT('',(-27.9638194417316,-69.075,-8.54334835262049));
#720=CARTESIAN_POINT('',(-31.075,-65.175,-8.74187876607842));
#721=CARTESIAN_POINT('Origin',(-27.075,-65.175,-8.48663107506247));
#722=CARTESIAN_POINT('',(-31.075,-65.175,-8.74187876607842));
#723=CARTESIAN_POINT('Origin',(-66.0532476543047,-57.15,-10.9739080034648));
#724=CARTESIAN_POINT('',(-67.1510148919702,-57.15,-11.0439586416366));
#725=CARTESIAN_POINT('Origin',(-66.0532476543047,-57.15,-10.9739080034648));
#726=CARTESIAN_POINT('',(-67.1510148919702,-57.15,-11.0439586416366));
#727=CARTESIAN_POINT('Origin',(-41.5447225617547,-50.15,-9.4099718934448));
#728=CARTESIAN_POINT('',(-42.6424897994202,-50.15,-9.48002253161657));
#729=CARTESIAN_POINT('Origin',(-41.5447225617547,-50.15,-9.40997189344475));
#730=CARTESIAN_POINT('',(-42.6424897994202,-50.15,-9.48002253161657));
#731=CARTESIAN_POINT('Origin',(-41.5447225617547,-64.15,-9.4099718934448));
#732=CARTESIAN_POINT('',(-42.6424897994202,-64.15,-9.48002253161657));
#733=CARTESIAN_POINT('Origin',(-41.5447225617547,-64.15,-9.40997189344475));
#734=CARTESIAN_POINT('',(-42.6424897994202,-64.15,-9.48002253161657));
#735=CARTESIAN_POINT('Origin',(-30.975,-60.00625,-2.2));
#736=CARTESIAN_POINT('',(-30.975,-60.00625,-2.2));
#737=CARTESIAN_POINT('',(-30.975,-60.00625,-2.2));
#738=CARTESIAN_POINT('',(-30.975,-54.29375,-2.2));
#739=CARTESIAN_POINT('',(-30.975,-58.578125,-2.2));
#740=CARTESIAN_POINT('',(-30.975,-54.29375,-2.2));
#741=CARTESIAN_POINT('Origin',(-30.0625,-57.15,-2.2));
#742=CARTESIAN_POINT('',(-29.15,-60.00625,-2.2));
#743=CARTESIAN_POINT('',(-29.60625,-60.00625,-2.2));
#744=CARTESIAN_POINT('',(-29.15,-54.29375,-2.2));
#745=CARTESIAN_POINT('',(-29.15,-55.721875,-2.2));
#746=CARTESIAN_POINT('',(-30.51875,-54.29375,-2.2));
#747=CARTESIAN_POINT('Origin',(-41.5499999999999,-60.10625,-9.41030865692644));
#748=CARTESIAN_POINT('',(-47.6499999999999,-60.10625,-9.79956138572577));
#749=CARTESIAN_POINT('',(-41.5499999999999,-60.10625,-9.41030865692644));
#750=CARTESIAN_POINT('',(-52.0886035671966,-60.10625,-10.0827972136913));
#751=CARTESIAN_POINT('',(-47.6499999999999,-60.10625,-9.79956138572577));
#752=CARTESIAN_POINT('',(-41.5499999999999,-60.10625,-9.41030865692644));
#753=CARTESIAN_POINT('Origin',(-41.5499999999999,-54.19375,-9.41030865692644));
#754=CARTESIAN_POINT('',(-41.5499999999999,-54.19375,-9.41030865692644));
#755=CARTESIAN_POINT('',(-41.5499999999999,-58.5434375,-9.41030865692644));
#756=CARTESIAN_POINT('',(-41.5499999999999,-54.19375,-9.41030865692644));
#757=CARTESIAN_POINT('Origin',(-47.6499999999999,-54.19375,-9.79956138572577));
#758=CARTESIAN_POINT('',(-47.6499999999999,-54.19375,-9.79956138572577));
#759=CARTESIAN_POINT('',(-49.0509726831638,-54.19375,-9.88896014636427));
#760=CARTESIAN_POINT('',(-47.6499999999999,-54.19375,-9.79956138572577));
#761=CARTESIAN_POINT('Origin',(-47.6499999999999,-60.10625,-9.79956138572577));
#762=CARTESIAN_POINT('',(-47.6499999999999,-55.5871875,-9.79956138572577));
#763=CARTESIAN_POINT('Origin',(-31.075,-65.175,-8.74187876607842));
#764=CARTESIAN_POINT('',(-31.075,-60.00625,-8.74187876607842));
#765=CARTESIAN_POINT('',(-31.075,-58.4934375,-8.74187876607842));
#766=CARTESIAN_POINT('',(-31.075,-60.00625,-8.74187876607842));
#767=CARTESIAN_POINT('Origin',(-86.3361805582685,-69.075,-12.2682009511568));
#768=CARTESIAN_POINT('',(-86.3361805582685,-69.075,-12.2682009511569));
#769=CARTESIAN_POINT('',(-86.3361805582685,-69.075,-12.2682009511569));
#770=CARTESIAN_POINT('',(-42.2854314274518,-69.075,-9.45723795036586));
#771=CARTESIAN_POINT('Origin',(-87.225,-65.175,-12.3249182287149));
#772=CARTESIAN_POINT('',(-83.225,-65.175,-12.0696705376989));
#773=CARTESIAN_POINT('',(-83.225,-65.175,-12.0696705376989));
#774=CARTESIAN_POINT('Origin',(-87.225,-65.175,-12.3249182287149));
#775=CARTESIAN_POINT('Origin',(-83.225,-49.88625,-12.0696705376989));
#776=CARTESIAN_POINT('',(-83.225,-49.88625,-12.0696705376989));
#777=CARTESIAN_POINT('',(-83.225,-61.0778125,-12.0696705376989));
#778=CARTESIAN_POINT('',(-83.225,-49.88625,-12.0696705376989));
#779=CARTESIAN_POINT('Origin',(-78.225,-49.88625,-11.750610923929));
#780=CARTESIAN_POINT('',(-78.225,-44.88625,-11.750610923929));
#781=CARTESIAN_POINT('Origin',(-78.225,-49.88625,-11.750610923929));
#782=CARTESIAN_POINT('',(-78.225,-44.88625,-11.750610923929));
#783=CARTESIAN_POINT('Origin',(-36.075,-44.88625,-9.06093837984836));
#784=CARTESIAN_POINT('',(-36.075,-44.88625,-9.06093837984836));
#785=CARTESIAN_POINT('',(-67.3141059080664,-44.88625,-11.0543657929576));
#786=CARTESIAN_POINT('',(-36.075,-44.88625,-9.06093837984836));
#787=CARTESIAN_POINT('Origin',(-36.075,-49.88625,-9.06093837984836));
#788=CARTESIAN_POINT('',(-31.075,-49.88625,-8.74187876607842));
#789=CARTESIAN_POINT('Origin',(-36.075,-49.88625,-9.06093837984836));
#790=CARTESIAN_POINT('',(-31.075,-49.88625,-8.74187876607842));
#791=CARTESIAN_POINT('Origin',(-31.075,-54.29375,-8.74187876607842));
#792=CARTESIAN_POINT('',(-31.075,-54.29375,-8.74187876607842));
#793=CARTESIAN_POINT('',(-31.075,-53.4334375,-8.74187876607842));
#794=CARTESIAN_POINT('',(-31.075,-54.29375,-8.74187876607842));
#795=CARTESIAN_POINT('Origin',(-29.15,-54.29375,-8.61904081477699));
#796=CARTESIAN_POINT('',(-29.15,-54.29375,-8.61904081477699));
#797=CARTESIAN_POINT('',(-43.8347130913205,-54.29375,-9.55610059222482));
#798=CARTESIAN_POINT('',(-29.15,-54.29375,-8.61904081477699));
#799=CARTESIAN_POINT('Origin',(-29.15,-60.00625,-8.61904081477699));
#800=CARTESIAN_POINT('',(-29.15,-60.00625,-8.61904081477699));
#801=CARTESIAN_POINT('',(-29.15,-55.6371875,-8.61904081477699));
#802=CARTESIAN_POINT('',(-29.15,-60.00625,-8.61904081477699));
#803=CARTESIAN_POINT('Origin',(-31.075,-60.00625,-8.74187876607842));
#804=CARTESIAN_POINT('',(-42.8761164598839,-60.00625,-9.49493069802735));
#805=CARTESIAN_POINT('Origin',(-57.15,-56.980625,-10.4057746518887));
#806=UNCERTAINTY_MEASURE_WITH_UNIT(LENGTH_MEASURE(0.01),#810,
'DISTANCE_ACCURACY_VALUE',
'Maximum model space distance between geometric entities at asserted c
onnectivities');
#807=UNCERTAINTY_MEASURE_WITH_UNIT(LENGTH_MEASURE(0.01),#810,
'DISTANCE_ACCURACY_VALUE',
'Maximum model space distance between geometric entities at asserted c
onnectivities');
#808=(
GEOMETRIC_REPRESENTATION_CONTEXT(3)
GLOBAL_UNCERTAINTY_ASSIGNED_CONTEXT((#806))
GLOBAL_UNIT_ASSIGNED_CONTEXT((#810,#812,#813))
REPRESENTATION_CONTEXT('','3D')
);
#809=(
GEOMETRIC_REPRESENTATION_CONTEXT(3)
GLOBAL_UNCERTAINTY_ASSIGNED_CONTEXT((#807))
GLOBAL_UNIT_ASSIGNED_CONTEXT((#810,#812,#813))
REPRESENTATION_CONTEXT('','3D')
);
#810=(
LENGTH_UNIT()
NAMED_UNIT(*)
SI_UNIT(.MILLI.,.METRE.)
);
#811=(
LENGTH_UNIT()
NAMED_UNIT(*)
SI_UNIT($,.METRE.)
);
#812=(
NAMED_UNIT(*)
PLANE_ANGLE_UNIT()
SI_UNIT($,.RADIAN.)
);
#813=(
NAMED_UNIT(*)
SI_UNIT($,.STERADIAN.)
SOLID_ANGLE_UNIT()
);
#814=SHAPE_DEFINITION_REPRESENTATION(#815,#816);
#815=PRODUCT_DEFINITION_SHAPE('',$,#818);
#816=SHAPE_REPRESENTATION('',(#498),#808);
#817=PRODUCT_DEFINITION_CONTEXT('part definition',#822,'design');
#818=PRODUCT_DEFINITION('2026-07-20-01-37-01-741','Modey45_R2_BOTTOM',#819,
#817);
#819=PRODUCT_DEFINITION_FORMATION('',$,#824);
#820=PRODUCT_RELATED_PRODUCT_CATEGORY('Modey45_R2_BOTTOM',
'Modey45_R2_BOTTOM',(#824));
#821=APPLICATION_PROTOCOL_DEFINITION('international standard',
'automotive_design',2009,#822);
#822=APPLICATION_CONTEXT(
'Core Data for Automotive Mechanical Design Process');
#823=PRODUCT_CONTEXT('part definition',#822,'mechanical');
#824=PRODUCT('2026-07-20-01-37-01-741','Modey45_R2_BOTTOM',$,(#823));
#825=PRESENTATION_STYLE_ASSIGNMENT((#826));
#826=SURFACE_STYLE_USAGE(.BOTH.,#827);
#827=SURFACE_SIDE_STYLE('',(#828));
#828=SURFACE_STYLE_FILL_AREA(#829);
#829=FILL_AREA_STYLE('\X2\92FC\X0\ - \X2\30B530C630F3\X0\',(#830));
#830=FILL_AREA_STYLE_COLOUR('\X2\92FC\X0\ - \X2\30B530C630F3\X0\',#831);
#831=COLOUR_RGB('\X2\92FC\X0\ - \X2\30B530C630F3\X0\',0.627450980392157,
0.627450980392157,0.627450980392157);
ENDSEC;
END-ISO-10303-21;
