ISO-10303-21;
HEADER;
/* Generated by software containing ST-Developer
 * from STEP Tools, Inc. (www.steptools.com) 
 */

FILE_DESCRIPTION(
/* description */ (''),
/* implementation_level */ '2;1');

FILE_NAME(
/* name */ 'power_sw.step',
/* time_stamp */ '2026-07-20T14:14:20+09:00',
/* author */ (''),
/* organization */ (''),
/* preprocessor_version */ 'ST-DEVELOPER v20.1',
/* originating_system */ 'Autodesk Translation Framework v15.8.0.0',
/* authorisation */ '');

FILE_SCHEMA (('AUTOMOTIVE_DESIGN { 1 0 10303 214 3 1 1 }'));
ENDSEC;

DATA;
#10=MECHANICAL_DESIGN_GEOMETRIC_PRESENTATION_REPRESENTATION('',(#13),#616);
#11=SHAPE_REPRESENTATION_RELATIONSHIP('SRR','None',#623,#12);
#12=ADVANCED_BREP_SHAPE_REPRESENTATION('',(#14),#615);
#13=STYLED_ITEM('',(#632),#14);
#14=MANIFOLD_SOLID_BREP('\X2\30DC30C730A3\X0\1',#362);
#15=FACE_BOUND('',#75,.T.);
#16=PLANE('',#382);
#17=PLANE('',#383);
#18=PLANE('',#384);
#19=PLANE('',#385);
#20=PLANE('',#386);
#21=PLANE('',#387);
#22=PLANE('',#388);
#23=PLANE('',#389);
#24=PLANE('',#392);
#25=PLANE('',#397);
#26=PLANE('',#400);
#27=PLANE('',#403);
#28=PLANE('',#405);
#29=PLANE('',#407);
#30=CYLINDRICAL_SURFACE('',#379,1.6);
#31=CYLINDRICAL_SURFACE('',#398,1.6);
#32=CYLINDRICAL_SURFACE('',#401,1.6);
#33=CYLINDRICAL_SURFACE('',#404,1.6);
#34=CYLINDRICAL_SURFACE('',#406,1.6);
#35=FACE_OUTER_BOUND('',#55,.T.);
#36=FACE_OUTER_BOUND('',#56,.T.);
#37=FACE_OUTER_BOUND('',#57,.T.);
#38=FACE_OUTER_BOUND('',#58,.T.);
#39=FACE_OUTER_BOUND('',#59,.T.);
#40=FACE_OUTER_BOUND('',#60,.T.);
#41=FACE_OUTER_BOUND('',#61,.T.);
#42=FACE_OUTER_BOUND('',#62,.T.);
#43=FACE_OUTER_BOUND('',#63,.T.);
#44=FACE_OUTER_BOUND('',#64,.T.);
#45=FACE_OUTER_BOUND('',#65,.T.);
#46=FACE_OUTER_BOUND('',#66,.T.);
#47=FACE_OUTER_BOUND('',#67,.T.);
#48=FACE_OUTER_BOUND('',#68,.T.);
#49=FACE_OUTER_BOUND('',#69,.T.);
#50=FACE_OUTER_BOUND('',#70,.T.);
#51=FACE_OUTER_BOUND('',#71,.T.);
#52=FACE_OUTER_BOUND('',#72,.T.);
#53=FACE_OUTER_BOUND('',#73,.T.);
#54=FACE_OUTER_BOUND('',#74,.T.);
#55=EDGE_LOOP('',(#243,#244,#245,#246));
#56=EDGE_LOOP('',(#247,#248,#249,#250,#251));
#57=EDGE_LOOP('',(#252));
#58=EDGE_LOOP('',(#253,#254,#255,#256));
#59=EDGE_LOOP('',(#257,#258,#259,#260));
#60=EDGE_LOOP('',(#261,#262,#263,#264));
#61=EDGE_LOOP('',(#265,#266,#267,#268));
#62=EDGE_LOOP('',(#269,#270,#271,#272));
#63=EDGE_LOOP('',(#273,#274,#275,#276));
#64=EDGE_LOOP('',(#277,#278,#279,#280,#281,#282));
#65=EDGE_LOOP('',(#283,#284,#285,#286,#287,#288,#289,#290,#291,#292,#293));
#66=EDGE_LOOP('',(#294,#295,#296,#297,#298,#299));
#67=EDGE_LOOP('',(#300,#301,#302,#303));
#68=EDGE_LOOP('',(#304,#305,#306,#307));
#69=EDGE_LOOP('',(#308,#309,#310,#311));
#70=EDGE_LOOP('',(#312,#313,#314,#315,#316,#317));
#71=EDGE_LOOP('',(#318,#319,#320,#321));
#72=EDGE_LOOP('',(#322,#323,#324,#325,#326));
#73=EDGE_LOOP('',(#327,#328,#329,#330));
#74=EDGE_LOOP('',(#331,#332,#333,#334,#335,#336));
#75=EDGE_LOOP('',(#337,#338,#339,#340));
#76=LINE('',#516,#113);
#77=LINE('',#520,#114);
#78=LINE('',#528,#115);
#79=LINE('',#530,#116);
#80=LINE('',#532,#117);
#81=LINE('',#533,#118);
#82=LINE('',#536,#119);
#83=LINE('',#538,#120);
#84=LINE('',#539,#121);
#85=LINE('',#542,#122);
#86=LINE('',#544,#123);
#87=LINE('',#545,#124);
#88=LINE('',#547,#125);
#89=LINE('',#548,#126);
#90=LINE('',#553,#127);
#91=LINE('',#555,#128);
#92=LINE('',#557,#129);
#93=LINE('',#558,#130);
#94=LINE('',#561,#131);
#95=LINE('',#565,#132);
#96=LINE('',#568,#133);
#97=LINE('',#574,#134);
#98=LINE('',#578,#135);
#99=LINE('',#582,#136);
#100=LINE('',#585,#137);
#101=LINE('',#586,#138);
#102=LINE('',#588,#139);
#103=LINE('',#590,#140);
#104=LINE('',#591,#141);
#105=LINE('',#595,#142);
#106=LINE('',#598,#143);
#107=LINE('',#599,#144);
#108=LINE('',#603,#145);
#109=LINE('',#605,#146);
#110=LINE('',#606,#147);
#111=LINE('',#608,#148);
#112=LINE('',#610,#149);
#113=VECTOR('',#414,1.5);
#114=VECTOR('',#419,1.6);
#115=VECTOR('',#428,10.);
#116=VECTOR('',#429,10.);
#117=VECTOR('',#430,10.);
#118=VECTOR('',#431,10.);
#119=VECTOR('',#434,10.);
#120=VECTOR('',#435,10.);
#121=VECTOR('',#436,10.);
#122=VECTOR('',#439,10.);
#123=VECTOR('',#440,10.);
#124=VECTOR('',#441,10.);
#125=VECTOR('',#444,10.);
#126=VECTOR('',#445,10.);
#127=VECTOR('',#450,10.);
#128=VECTOR('',#451,10.);
#129=VECTOR('',#452,10.);
#130=VECTOR('',#453,10.);
#131=VECTOR('',#456,10.);
#132=VECTOR('',#459,10.);
#133=VECTOR('',#462,10.);
#134=VECTOR('',#467,10.);
#135=VECTOR('',#470,10.);
#136=VECTOR('',#473,10.);
#137=VECTOR('',#476,10.);
#138=VECTOR('',#477,10.);
#139=VECTOR('',#480,10.);
#140=VECTOR('',#481,10.);
#141=VECTOR('',#482,10.);
#142=VECTOR('',#487,10.);
#143=VECTOR('',#490,10.);
#144=VECTOR('',#491,10.);
#145=VECTOR('',#496,10.);
#146=VECTOR('',#499,10.);
#147=VECTOR('',#500,10.);
#148=VECTOR('',#503,10.);
#149=VECTOR('',#506,10.);
#150=CIRCLE('',#377,1.4);
#151=CIRCLE('',#378,1.6);
#152=CIRCLE('',#380,1.6);
#153=CIRCLE('',#381,1.6);
#154=CIRCLE('',#390,1.6);
#155=CIRCLE('',#391,1.6);
#156=CIRCLE('',#393,1.6);
#157=CIRCLE('',#394,1.6);
#158=CIRCLE('',#395,1.6);
#159=CIRCLE('',#396,1.6);
#160=CIRCLE('',#399,1.6);
#161=CIRCLE('',#402,1.6);
#162=VERTEX_POINT('',#513);
#163=VERTEX_POINT('',#515);
#164=VERTEX_POINT('',#519);
#165=VERTEX_POINT('',#521);
#166=VERTEX_POINT('',#526);
#167=VERTEX_POINT('',#527);
#168=VERTEX_POINT('',#529);
#169=VERTEX_POINT('',#531);
#170=VERTEX_POINT('',#535);
#171=VERTEX_POINT('',#537);
#172=VERTEX_POINT('',#541);
#173=VERTEX_POINT('',#543);
#174=VERTEX_POINT('',#551);
#175=VERTEX_POINT('',#552);
#176=VERTEX_POINT('',#554);
#177=VERTEX_POINT('',#556);
#178=VERTEX_POINT('',#560);
#179=VERTEX_POINT('',#562);
#180=VERTEX_POINT('',#564);
#181=VERTEX_POINT('',#566);
#182=VERTEX_POINT('',#570);
#183=VERTEX_POINT('',#571);
#184=VERTEX_POINT('',#573);
#185=VERTEX_POINT('',#575);
#186=VERTEX_POINT('',#577);
#187=VERTEX_POINT('',#579);
#188=VERTEX_POINT('',#581);
#189=VERTEX_POINT('',#583);
#190=VERTEX_POINT('',#589);
#191=VERTEX_POINT('',#593);
#192=VERTEX_POINT('',#597);
#193=VERTEX_POINT('',#601);
#194=EDGE_CURVE('',#162,#162,#150,.T.);
#195=EDGE_CURVE('',#162,#163,#76,.T.);
#196=EDGE_CURVE('',#163,#163,#151,.T.);
#197=EDGE_CURVE('',#163,#164,#77,.T.);
#198=EDGE_CURVE('',#165,#164,#152,.T.);
#199=EDGE_CURVE('',#164,#165,#153,.T.);
#200=EDGE_CURVE('',#166,#167,#78,.T.);
#201=EDGE_CURVE('',#166,#168,#79,.T.);
#202=EDGE_CURVE('',#168,#169,#80,.T.);
#203=EDGE_CURVE('',#167,#169,#81,.T.);
#204=EDGE_CURVE('',#170,#166,#82,.T.);
#205=EDGE_CURVE('',#170,#171,#83,.T.);
#206=EDGE_CURVE('',#171,#168,#84,.T.);
#207=EDGE_CURVE('',#172,#170,#85,.T.);
#208=EDGE_CURVE('',#172,#173,#86,.T.);
#209=EDGE_CURVE('',#173,#171,#87,.T.);
#210=EDGE_CURVE('',#167,#172,#88,.T.);
#211=EDGE_CURVE('',#169,#173,#89,.T.);
#212=EDGE_CURVE('',#174,#175,#90,.T.);
#213=EDGE_CURVE('',#174,#176,#91,.T.);
#214=EDGE_CURVE('',#177,#176,#92,.T.);
#215=EDGE_CURVE('',#175,#177,#93,.T.);
#216=EDGE_CURVE('',#176,#178,#94,.T.);
#217=EDGE_CURVE('',#178,#179,#154,.T.);
#218=EDGE_CURVE('',#179,#180,#95,.T.);
#219=EDGE_CURVE('',#180,#181,#155,.T.);
#220=EDGE_CURVE('',#181,#177,#96,.T.);
#221=EDGE_CURVE('',#182,#183,#156,.T.);
#222=EDGE_CURVE('',#184,#182,#97,.T.);
#223=EDGE_CURVE('',#185,#184,#157,.T.);
#224=EDGE_CURVE('',#186,#185,#98,.T.);
#225=EDGE_CURVE('',#187,#186,#158,.T.);
#226=EDGE_CURVE('',#188,#187,#99,.T.);
#227=EDGE_CURVE('',#189,#188,#159,.T.);
#228=EDGE_CURVE('',#165,#189,#100,.T.);
#229=EDGE_CURVE('',#183,#165,#101,.T.);
#230=EDGE_CURVE('',#182,#178,#102,.T.);
#231=EDGE_CURVE('',#190,#174,#103,.T.);
#232=EDGE_CURVE('',#184,#190,#104,.T.);
#233=EDGE_CURVE('',#191,#190,#160,.T.);
#234=EDGE_CURVE('',#185,#191,#105,.T.);
#235=EDGE_CURVE('',#192,#191,#106,.T.);
#236=EDGE_CURVE('',#186,#192,#107,.T.);
#237=EDGE_CURVE('',#193,#192,#161,.T.);
#238=EDGE_CURVE('',#187,#193,#108,.T.);
#239=EDGE_CURVE('',#175,#193,#109,.T.);
#240=EDGE_CURVE('',#188,#181,#110,.T.);
#241=EDGE_CURVE('',#189,#180,#111,.T.);
#242=EDGE_CURVE('',#183,#179,#112,.T.);
#243=ORIENTED_EDGE('',*,*,#194,.T.);
#244=ORIENTED_EDGE('',*,*,#195,.T.);
#245=ORIENTED_EDGE('',*,*,#196,.T.);
#246=ORIENTED_EDGE('',*,*,#195,.F.);
#247=ORIENTED_EDGE('',*,*,#196,.F.);
#248=ORIENTED_EDGE('',*,*,#197,.T.);
#249=ORIENTED_EDGE('',*,*,#198,.F.);
#250=ORIENTED_EDGE('',*,*,#199,.F.);
#251=ORIENTED_EDGE('',*,*,#197,.F.);
#252=ORIENTED_EDGE('',*,*,#194,.F.);
#253=ORIENTED_EDGE('',*,*,#200,.F.);
#254=ORIENTED_EDGE('',*,*,#201,.T.);
#255=ORIENTED_EDGE('',*,*,#202,.T.);
#256=ORIENTED_EDGE('',*,*,#203,.F.);
#257=ORIENTED_EDGE('',*,*,#204,.F.);
#258=ORIENTED_EDGE('',*,*,#205,.T.);
#259=ORIENTED_EDGE('',*,*,#206,.T.);
#260=ORIENTED_EDGE('',*,*,#201,.F.);
#261=ORIENTED_EDGE('',*,*,#207,.F.);
#262=ORIENTED_EDGE('',*,*,#208,.T.);
#263=ORIENTED_EDGE('',*,*,#209,.T.);
#264=ORIENTED_EDGE('',*,*,#205,.F.);
#265=ORIENTED_EDGE('',*,*,#210,.F.);
#266=ORIENTED_EDGE('',*,*,#203,.T.);
#267=ORIENTED_EDGE('',*,*,#211,.T.);
#268=ORIENTED_EDGE('',*,*,#208,.F.);
#269=ORIENTED_EDGE('',*,*,#211,.F.);
#270=ORIENTED_EDGE('',*,*,#202,.F.);
#271=ORIENTED_EDGE('',*,*,#206,.F.);
#272=ORIENTED_EDGE('',*,*,#209,.F.);
#273=ORIENTED_EDGE('',*,*,#212,.F.);
#274=ORIENTED_EDGE('',*,*,#213,.T.);
#275=ORIENTED_EDGE('',*,*,#214,.F.);
#276=ORIENTED_EDGE('',*,*,#215,.F.);
#277=ORIENTED_EDGE('',*,*,#216,.T.);
#278=ORIENTED_EDGE('',*,*,#217,.T.);
#279=ORIENTED_EDGE('',*,*,#218,.T.);
#280=ORIENTED_EDGE('',*,*,#219,.T.);
#281=ORIENTED_EDGE('',*,*,#220,.T.);
#282=ORIENTED_EDGE('',*,*,#214,.T.);
#283=ORIENTED_EDGE('',*,*,#221,.F.);
#284=ORIENTED_EDGE('',*,*,#222,.F.);
#285=ORIENTED_EDGE('',*,*,#223,.F.);
#286=ORIENTED_EDGE('',*,*,#224,.F.);
#287=ORIENTED_EDGE('',*,*,#225,.F.);
#288=ORIENTED_EDGE('',*,*,#226,.F.);
#289=ORIENTED_EDGE('',*,*,#227,.F.);
#290=ORIENTED_EDGE('',*,*,#228,.F.);
#291=ORIENTED_EDGE('',*,*,#198,.T.);
#292=ORIENTED_EDGE('',*,*,#199,.T.);
#293=ORIENTED_EDGE('',*,*,#229,.F.);
#294=ORIENTED_EDGE('',*,*,#222,.T.);
#295=ORIENTED_EDGE('',*,*,#230,.T.);
#296=ORIENTED_EDGE('',*,*,#216,.F.);
#297=ORIENTED_EDGE('',*,*,#213,.F.);
#298=ORIENTED_EDGE('',*,*,#231,.F.);
#299=ORIENTED_EDGE('',*,*,#232,.F.);
#300=ORIENTED_EDGE('',*,*,#223,.T.);
#301=ORIENTED_EDGE('',*,*,#232,.T.);
#302=ORIENTED_EDGE('',*,*,#233,.F.);
#303=ORIENTED_EDGE('',*,*,#234,.F.);
#304=ORIENTED_EDGE('',*,*,#224,.T.);
#305=ORIENTED_EDGE('',*,*,#234,.T.);
#306=ORIENTED_EDGE('',*,*,#235,.F.);
#307=ORIENTED_EDGE('',*,*,#236,.F.);
#308=ORIENTED_EDGE('',*,*,#225,.T.);
#309=ORIENTED_EDGE('',*,*,#236,.T.);
#310=ORIENTED_EDGE('',*,*,#237,.F.);
#311=ORIENTED_EDGE('',*,*,#238,.F.);
#312=ORIENTED_EDGE('',*,*,#226,.T.);
#313=ORIENTED_EDGE('',*,*,#238,.T.);
#314=ORIENTED_EDGE('',*,*,#239,.F.);
#315=ORIENTED_EDGE('',*,*,#215,.T.);
#316=ORIENTED_EDGE('',*,*,#220,.F.);
#317=ORIENTED_EDGE('',*,*,#240,.F.);
#318=ORIENTED_EDGE('',*,*,#227,.T.);
#319=ORIENTED_EDGE('',*,*,#240,.T.);
#320=ORIENTED_EDGE('',*,*,#219,.F.);
#321=ORIENTED_EDGE('',*,*,#241,.F.);
#322=ORIENTED_EDGE('',*,*,#229,.T.);
#323=ORIENTED_EDGE('',*,*,#228,.T.);
#324=ORIENTED_EDGE('',*,*,#241,.T.);
#325=ORIENTED_EDGE('',*,*,#218,.F.);
#326=ORIENTED_EDGE('',*,*,#242,.F.);
#327=ORIENTED_EDGE('',*,*,#221,.T.);
#328=ORIENTED_EDGE('',*,*,#242,.T.);
#329=ORIENTED_EDGE('',*,*,#217,.F.);
#330=ORIENTED_EDGE('',*,*,#230,.F.);
#331=ORIENTED_EDGE('',*,*,#212,.T.);
#332=ORIENTED_EDGE('',*,*,#239,.T.);
#333=ORIENTED_EDGE('',*,*,#237,.T.);
#334=ORIENTED_EDGE('',*,*,#235,.T.);
#335=ORIENTED_EDGE('',*,*,#233,.T.);
#336=ORIENTED_EDGE('',*,*,#231,.T.);
#337=ORIENTED_EDGE('',*,*,#200,.T.);
#338=ORIENTED_EDGE('',*,*,#210,.T.);
#339=ORIENTED_EDGE('',*,*,#207,.T.);
#340=ORIENTED_EDGE('',*,*,#204,.T.);
#341=CONICAL_SURFACE('',#376,1.5,0.785398163397448);
#342=ADVANCED_FACE('',(#35),#341,.T.);
#343=ADVANCED_FACE('',(#36),#30,.T.);
#344=ADVANCED_FACE('',(#37),#16,.F.);
#345=ADVANCED_FACE('',(#38),#17,.F.);
#346=ADVANCED_FACE('',(#39),#18,.F.);
#347=ADVANCED_FACE('',(#40),#19,.F.);
#348=ADVANCED_FACE('',(#41),#20,.F.);
#349=ADVANCED_FACE('',(#42),#21,.F.);
#350=ADVANCED_FACE('',(#43),#22,.T.);
#351=ADVANCED_FACE('',(#44),#23,.T.);
#352=ADVANCED_FACE('',(#45),#24,.F.);
#353=ADVANCED_FACE('',(#46),#25,.T.);
#354=ADVANCED_FACE('',(#47),#31,.T.);
#355=ADVANCED_FACE('',(#48),#26,.T.);
#356=ADVANCED_FACE('',(#49),#32,.T.);
#357=ADVANCED_FACE('',(#50),#27,.T.);
#358=ADVANCED_FACE('',(#51),#33,.T.);
#359=ADVANCED_FACE('',(#52),#28,.T.);
#360=ADVANCED_FACE('',(#53),#34,.T.);
#361=ADVANCED_FACE('',(#54,#15),#29,.T.);
#362=CLOSED_SHELL('',(#342,#343,#344,#345,#346,#347,#348,#349,#350,#351,
#352,#353,#354,#355,#356,#357,#358,#359,#360,#361));
#363=DERIVED_UNIT_ELEMENT(#365,1.);
#364=DERIVED_UNIT_ELEMENT(#618,-3.);
#365=(
MASS_UNIT()
NAMED_UNIT(*)
SI_UNIT(.KILO.,.GRAM.)
);
#366=DERIVED_UNIT((#363,#364));
#367=MEASURE_REPRESENTATION_ITEM('density measure',
POSITIVE_RATIO_MEASURE(7850.),#366);
#368=PROPERTY_DEFINITION_REPRESENTATION(#373,#370);
#369=PROPERTY_DEFINITION_REPRESENTATION(#374,#371);
#370=REPRESENTATION('material name',(#372),#615);
#371=REPRESENTATION('density',(#367),#615);
#372=DESCRIPTIVE_REPRESENTATION_ITEM('\X2\92FC\X0\','\X2\92FC\X0\');
#373=PROPERTY_DEFINITION('material property','material name',#625);
#374=PROPERTY_DEFINITION('material property','density of part',#625);
#375=AXIS2_PLACEMENT_3D('',#511,#408,#409);
#376=AXIS2_PLACEMENT_3D('',#512,#410,#411);
#377=AXIS2_PLACEMENT_3D('',#514,#412,#413);
#378=AXIS2_PLACEMENT_3D('',#517,#415,#416);
#379=AXIS2_PLACEMENT_3D('',#518,#417,#418);
#380=AXIS2_PLACEMENT_3D('',#522,#420,#421);
#381=AXIS2_PLACEMENT_3D('',#523,#422,#423);
#382=AXIS2_PLACEMENT_3D('',#524,#424,#425);
#383=AXIS2_PLACEMENT_3D('',#525,#426,#427);
#384=AXIS2_PLACEMENT_3D('',#534,#432,#433);
#385=AXIS2_PLACEMENT_3D('',#540,#437,#438);
#386=AXIS2_PLACEMENT_3D('',#546,#442,#443);
#387=AXIS2_PLACEMENT_3D('',#549,#446,#447);
#388=AXIS2_PLACEMENT_3D('',#550,#448,#449);
#389=AXIS2_PLACEMENT_3D('',#559,#454,#455);
#390=AXIS2_PLACEMENT_3D('',#563,#457,#458);
#391=AXIS2_PLACEMENT_3D('',#567,#460,#461);
#392=AXIS2_PLACEMENT_3D('',#569,#463,#464);
#393=AXIS2_PLACEMENT_3D('',#572,#465,#466);
#394=AXIS2_PLACEMENT_3D('',#576,#468,#469);
#395=AXIS2_PLACEMENT_3D('',#580,#471,#472);
#396=AXIS2_PLACEMENT_3D('',#584,#474,#475);
#397=AXIS2_PLACEMENT_3D('',#587,#478,#479);
#398=AXIS2_PLACEMENT_3D('',#592,#483,#484);
#399=AXIS2_PLACEMENT_3D('',#594,#485,#486);
#400=AXIS2_PLACEMENT_3D('',#596,#488,#489);
#401=AXIS2_PLACEMENT_3D('',#600,#492,#493);
#402=AXIS2_PLACEMENT_3D('',#602,#494,#495);
#403=AXIS2_PLACEMENT_3D('',#604,#497,#498);
#404=AXIS2_PLACEMENT_3D('',#607,#501,#502);
#405=AXIS2_PLACEMENT_3D('',#609,#504,#505);
#406=AXIS2_PLACEMENT_3D('',#611,#507,#508);
#407=AXIS2_PLACEMENT_3D('',#612,#509,#510);
#408=DIRECTION('axis',(0.,0.,1.));
#409=DIRECTION('refdir',(1.,0.,0.));
#410=DIRECTION('center_axis',(0.,0.,1.));
#411=DIRECTION('ref_axis',(1.,0.,0.));
#412=DIRECTION('center_axis',(0.,0.,1.));
#413=DIRECTION('ref_axis',(1.,0.,0.));
#414=DIRECTION('',(-0.707106781186547,8.65956056235493E-17,0.707106781186548));
#415=DIRECTION('center_axis',(0.,0.,-1.));
#416=DIRECTION('ref_axis',(1.,0.,0.));
#417=DIRECTION('center_axis',(0.,0.,-1.));
#418=DIRECTION('ref_axis',(1.,0.,0.));
#419=DIRECTION('',(0.,0.,1.));
#420=DIRECTION('center_axis',(0.,0.,1.));
#421=DIRECTION('ref_axis',(1.,0.,0.));
#422=DIRECTION('center_axis',(0.,0.,1.));
#423=DIRECTION('ref_axis',(1.,0.,0.));
#424=DIRECTION('center_axis',(0.,0.,1.));
#425=DIRECTION('ref_axis',(1.,0.,0.));
#426=DIRECTION('center_axis',(1.,0.,0.));
#427=DIRECTION('ref_axis',(0.,-1.,0.));
#428=DIRECTION('',(0.,-1.,0.));
#429=DIRECTION('',(0.,0.,-1.));
#430=DIRECTION('',(0.,-1.,0.));
#431=DIRECTION('',(0.,0.,-1.));
#432=DIRECTION('center_axis',(0.,1.,0.));
#433=DIRECTION('ref_axis',(1.,0.,0.));
#434=DIRECTION('',(1.,0.,0.));
#435=DIRECTION('',(0.,0.,-1.));
#436=DIRECTION('',(1.,0.,0.));
#437=DIRECTION('center_axis',(-1.,0.,0.));
#438=DIRECTION('ref_axis',(0.,1.,0.));
#439=DIRECTION('',(0.,1.,0.));
#440=DIRECTION('',(0.,0.,-1.));
#441=DIRECTION('',(0.,1.,0.));
#442=DIRECTION('center_axis',(0.,-1.,0.));
#443=DIRECTION('ref_axis',(-1.,0.,0.));
#444=DIRECTION('',(-1.,0.,0.));
#445=DIRECTION('',(-1.,0.,0.));
#446=DIRECTION('center_axis',(0.,0.,-1.));
#447=DIRECTION('ref_axis',(-1.,0.,0.));
#448=DIRECTION('center_axis',(0.,1.,0.));
#449=DIRECTION('ref_axis',(-1.,0.,0.));
#450=DIRECTION('',(1.,0.,0.));
#451=DIRECTION('',(0.,0.,1.));
#452=DIRECTION('',(-1.,0.,0.));
#453=DIRECTION('',(0.,0.,1.));
#454=DIRECTION('center_axis',(0.,0.,1.));
#455=DIRECTION('ref_axis',(1.,0.,0.));
#456=DIRECTION('',(0.,-1.,0.));
#457=DIRECTION('center_axis',(0.,0.,1.));
#458=DIRECTION('ref_axis',(-1.,1.73472347597681E-16,0.));
#459=DIRECTION('',(1.,0.,0.));
#460=DIRECTION('center_axis',(0.,0.,1.));
#461=DIRECTION('ref_axis',(-1.21430643318377E-15,-1.,0.));
#462=DIRECTION('',(0.,1.,0.));
#463=DIRECTION('center_axis',(0.,0.,1.));
#464=DIRECTION('ref_axis',(1.,0.,0.));
#465=DIRECTION('center_axis',(0.,0.,1.));
#466=DIRECTION('ref_axis',(-1.,1.73472347597681E-16,0.));
#467=DIRECTION('',(0.,-1.,0.));
#468=DIRECTION('center_axis',(0.,0.,1.));
#469=DIRECTION('ref_axis',(3.46944695195362E-16,1.,0.));
#470=DIRECTION('',(-1.,-7.93016446160826E-17,0.));
#471=DIRECTION('center_axis',(0.,0.,1.));
#472=DIRECTION('ref_axis',(1.,-5.28573641874747E-16,0.));
#473=DIRECTION('',(0.,1.,0.));
#474=DIRECTION('center_axis',(0.,0.,1.));
#475=DIRECTION('ref_axis',(-1.21430643318377E-15,-1.,0.));
#476=DIRECTION('',(1.,0.,0.));
#477=DIRECTION('',(1.,0.,0.));
#478=DIRECTION('center_axis',(-1.,0.,0.));
#479=DIRECTION('ref_axis',(0.,-1.,0.));
#480=DIRECTION('',(0.,0.,1.));
#481=DIRECTION('',(0.,-1.,0.));
#482=DIRECTION('',(0.,0.,1.));
#483=DIRECTION('center_axis',(0.,0.,1.));
#484=DIRECTION('ref_axis',(3.46944695195362E-16,1.,0.));
#485=DIRECTION('center_axis',(0.,0.,1.));
#486=DIRECTION('ref_axis',(3.46944695195362E-16,1.,0.));
#487=DIRECTION('',(0.,0.,1.));
#488=DIRECTION('center_axis',(-7.93016446160826E-17,1.,0.));
#489=DIRECTION('ref_axis',(-1.,-7.93016446160826E-17,0.));
#490=DIRECTION('',(-1.,-7.93016446160826E-17,0.));
#491=DIRECTION('',(0.,0.,1.));
#492=DIRECTION('center_axis',(0.,0.,1.));
#493=DIRECTION('ref_axis',(1.,-5.28573641874747E-16,0.));
#494=DIRECTION('center_axis',(0.,0.,1.));
#495=DIRECTION('ref_axis',(1.,-5.28573641874747E-16,0.));
#496=DIRECTION('',(0.,0.,1.));
#497=DIRECTION('center_axis',(1.,0.,0.));
#498=DIRECTION('ref_axis',(0.,1.,0.));
#499=DIRECTION('',(0.,1.,0.));
#500=DIRECTION('',(0.,0.,1.));
#501=DIRECTION('center_axis',(0.,0.,1.));
#502=DIRECTION('ref_axis',(-1.21430643318377E-15,-1.,0.));
#503=DIRECTION('',(0.,0.,1.));
#504=DIRECTION('center_axis',(0.,-1.,0.));
#505=DIRECTION('ref_axis',(1.,0.,0.));
#506=DIRECTION('',(0.,0.,1.));
#507=DIRECTION('center_axis',(0.,0.,1.));
#508=DIRECTION('ref_axis',(-1.,1.73472347597681E-16,0.));
#509=DIRECTION('center_axis',(0.,0.,1.));
#510=DIRECTION('ref_axis',(1.,0.,0.));
#511=CARTESIAN_POINT('',(0.,0.,0.));
#512=CARTESIAN_POINT('Origin',(0.,-1.55,-1.4));
#513=CARTESIAN_POINT('',(-1.4,-1.55,-1.5));
#514=CARTESIAN_POINT('Origin',(0.,-1.55,-1.5));
#515=CARTESIAN_POINT('',(-1.6,-1.55,-1.3));
#516=CARTESIAN_POINT('',(-1.5,-1.55,-1.4));
#517=CARTESIAN_POINT('Origin',(0.,-1.55,-1.3));
#518=CARTESIAN_POINT('Origin',(0.,-1.55,0.));
#519=CARTESIAN_POINT('',(-1.6,-1.55,0.));
#520=CARTESIAN_POINT('',(-1.6,-1.55,0.));
#521=CARTESIAN_POINT('',(0.,-3.15,0.));
#522=CARTESIAN_POINT('Origin',(0.,-1.55,0.));
#523=CARTESIAN_POINT('Origin',(0.,-1.55,0.));
#524=CARTESIAN_POINT('Origin',(0.,-1.55,-1.5));
#525=CARTESIAN_POINT('Origin',(0.65,0.55,2.7));
#526=CARTESIAN_POINT('',(0.65,0.55,2.7));
#527=CARTESIAN_POINT('',(0.65,-0.55,2.7));
#528=CARTESIAN_POINT('',(0.65,-0.1125,2.7));
#529=CARTESIAN_POINT('',(0.65,0.55,1.2));
#530=CARTESIAN_POINT('',(0.65,0.55,2.7));
#531=CARTESIAN_POINT('',(0.65,-0.55,1.2));
#532=CARTESIAN_POINT('',(0.65,-0.275,1.2));
#533=CARTESIAN_POINT('',(0.65,-0.55,2.7));
#534=CARTESIAN_POINT('Origin',(-0.65,0.55,2.7));
#535=CARTESIAN_POINT('',(-0.65,0.55,2.7));
#536=CARTESIAN_POINT('',(-0.325,0.55,2.7));
#537=CARTESIAN_POINT('',(-0.65,0.55,1.2));
#538=CARTESIAN_POINT('',(-0.65,0.55,2.7));
#539=CARTESIAN_POINT('',(0.325,0.55,1.2));
#540=CARTESIAN_POINT('Origin',(-0.65,-0.55,2.7));
#541=CARTESIAN_POINT('',(-0.65,-0.55,2.7));
#542=CARTESIAN_POINT('',(-0.65,-0.6625,2.7));
#543=CARTESIAN_POINT('',(-0.65,-0.55,1.2));
#544=CARTESIAN_POINT('',(-0.65,-0.55,2.7));
#545=CARTESIAN_POINT('',(-0.65,0.275,1.2));
#546=CARTESIAN_POINT('Origin',(0.65,-0.55,2.7));
#547=CARTESIAN_POINT('',(0.325,-0.55,2.7));
#548=CARTESIAN_POINT('',(-0.325,-0.55,1.2));
#549=CARTESIAN_POINT('Origin',(0.,0.,1.2));
#550=CARTESIAN_POINT('Origin',(3.35,-0.95,2.7));
#551=CARTESIAN_POINT('',(-3.35,-0.95,2.7));
#552=CARTESIAN_POINT('',(3.35,-0.95,2.7));
#553=CARTESIAN_POINT('',(1.675,-0.95,2.7));
#554=CARTESIAN_POINT('',(-3.35,-0.95,4.7));
#555=CARTESIAN_POINT('',(-3.35,-0.95,2.7));
#556=CARTESIAN_POINT('',(3.35,-0.95,4.7));
#557=CARTESIAN_POINT('',(1.675,-0.95,4.7));
#558=CARTESIAN_POINT('',(3.35,-0.95,2.7));
#559=CARTESIAN_POINT('Origin',(5.55111512312578E-16,-2.05,4.7));
#560=CARTESIAN_POINT('',(-3.35,-1.55,4.7));
#561=CARTESIAN_POINT('',(-3.35,-1.5,4.7));
#562=CARTESIAN_POINT('',(-1.75,-3.15,4.7));
#563=CARTESIAN_POINT('Origin',(-1.75,-1.55,4.7));
#564=CARTESIAN_POINT('',(1.75,-3.15,4.7));
#565=CARTESIAN_POINT('',(-0.874999999999999,-3.15,4.7));
#566=CARTESIAN_POINT('',(3.35,-1.55,4.7));
#567=CARTESIAN_POINT('Origin',(1.75,-1.55,4.7));
#568=CARTESIAN_POINT('',(3.35,-1.8,4.7));
#569=CARTESIAN_POINT('Origin',(5.55111512312578E-16,-0.775,0.));
#570=CARTESIAN_POINT('',(-3.35,-1.55,0.));
#571=CARTESIAN_POINT('',(-1.75,-3.15,0.));
#572=CARTESIAN_POINT('Origin',(-1.75,-1.55,0.));
#573=CARTESIAN_POINT('',(-3.35,6.19776565505613E-16,0.));
#574=CARTESIAN_POINT('',(-3.35,0.0499999999999998,0.));
#575=CARTESIAN_POINT('',(-1.75,1.6,0.));
#576=CARTESIAN_POINT('Origin',(-1.75,1.38777878078145E-15,0.));
#577=CARTESIAN_POINT('',(1.75,1.6,0.));
#578=CARTESIAN_POINT('',(1.75,1.6,0.));
#579=CARTESIAN_POINT('',(3.35,9.58394588016285E-16,0.));
#580=CARTESIAN_POINT('Origin',(1.75,1.80411241501588E-15,0.));
#581=CARTESIAN_POINT('',(3.35,-1.55,0.));
#582=CARTESIAN_POINT('',(3.35,-1.55,0.));
#583=CARTESIAN_POINT('',(1.75,-3.15,0.));
#584=CARTESIAN_POINT('Origin',(1.75,-1.55,0.));
#585=CARTESIAN_POINT('',(-1.75,-3.15,0.));
#586=CARTESIAN_POINT('',(-1.75,-3.15,0.));
#587=CARTESIAN_POINT('Origin',(-3.35,6.15826833971767E-16,0.));
#588=CARTESIAN_POINT('',(-3.35,-1.55,0.));
#589=CARTESIAN_POINT('',(-3.35,5.55111512312578E-16,2.7));
#590=CARTESIAN_POINT('',(-3.35,0.0499999999999998,2.7));
#591=CARTESIAN_POINT('',(-3.35,6.19776565505613E-16,0.));
#592=CARTESIAN_POINT('Origin',(-1.75,1.38777878078145E-15,0.));
#593=CARTESIAN_POINT('',(-1.75,1.6,2.7));
#594=CARTESIAN_POINT('Origin',(-1.75,1.38777878078145E-15,2.7));
#595=CARTESIAN_POINT('',(-1.75,1.6,0.));
#596=CARTESIAN_POINT('Origin',(1.75,1.6,0.));
#597=CARTESIAN_POINT('',(1.75,1.6,2.7));
#598=CARTESIAN_POINT('',(1.75,1.6,2.7));
#599=CARTESIAN_POINT('',(1.75,1.6,0.));
#600=CARTESIAN_POINT('Origin',(1.75,1.80411241501588E-15,0.));
#601=CARTESIAN_POINT('',(3.35,8.32667268468867E-16,2.7));
#602=CARTESIAN_POINT('Origin',(1.75,1.80411241501588E-15,2.7));
#603=CARTESIAN_POINT('',(3.35,9.58394588016285E-16,0.));
#604=CARTESIAN_POINT('Origin',(3.35,-1.55,0.));
#605=CARTESIAN_POINT('',(3.35,-1.55,2.7));
#606=CARTESIAN_POINT('',(3.35,-1.55,0.));
#607=CARTESIAN_POINT('Origin',(1.75,-1.55,0.));
#608=CARTESIAN_POINT('',(1.75,-3.15,0.));
#609=CARTESIAN_POINT('Origin',(-1.75,-3.15,0.));
#610=CARTESIAN_POINT('',(-1.75,-3.15,0.));
#611=CARTESIAN_POINT('Origin',(-1.75,-1.55,0.));
#612=CARTESIAN_POINT('Origin',(5.55111512312578E-16,-0.775,2.7));
#613=UNCERTAINTY_MEASURE_WITH_UNIT(LENGTH_MEASURE(0.01),#617,
'DISTANCE_ACCURACY_VALUE',
'Maximum model space distance between geometric entities at asserted c
onnectivities');
#614=UNCERTAINTY_MEASURE_WITH_UNIT(LENGTH_MEASURE(0.01),#617,
'DISTANCE_ACCURACY_VALUE',
'Maximum model space distance between geometric entities at asserted c
onnectivities');
#615=(
GEOMETRIC_REPRESENTATION_CONTEXT(3)
GLOBAL_UNCERTAINTY_ASSIGNED_CONTEXT((#613))
GLOBAL_UNIT_ASSIGNED_CONTEXT((#617,#619,#620))
REPRESENTATION_CONTEXT('','3D')
);
#616=(
GEOMETRIC_REPRESENTATION_CONTEXT(3)
GLOBAL_UNCERTAINTY_ASSIGNED_CONTEXT((#614))
GLOBAL_UNIT_ASSIGNED_CONTEXT((#617,#619,#620))
REPRESENTATION_CONTEXT('','3D')
);
#617=(
LENGTH_UNIT()
NAMED_UNIT(*)
SI_UNIT(.MILLI.,.METRE.)
);
#618=(
LENGTH_UNIT()
NAMED_UNIT(*)
SI_UNIT($,.METRE.)
);
#619=(
NAMED_UNIT(*)
PLANE_ANGLE_UNIT()
SI_UNIT($,.RADIAN.)
);
#620=(
NAMED_UNIT(*)
SI_UNIT($,.STERADIAN.)
SOLID_ANGLE_UNIT()
);
#621=SHAPE_DEFINITION_REPRESENTATION(#622,#623);
#622=PRODUCT_DEFINITION_SHAPE('',$,#625);
#623=SHAPE_REPRESENTATION('',(#375),#615);
#624=PRODUCT_DEFINITION_CONTEXT('part definition',#629,'design');
#625=PRODUCT_DEFINITION('2026-06-06-15-16-57-069','power_sw',#626,#624);
#626=PRODUCT_DEFINITION_FORMATION('',$,#631);
#627=PRODUCT_RELATED_PRODUCT_CATEGORY('power_sw','power_sw',(#631));
#628=APPLICATION_PROTOCOL_DEFINITION('international standard',
'automotive_design',2009,#629);
#629=APPLICATION_CONTEXT(
'Core Data for Automotive Mechanical Design Process');
#630=PRODUCT_CONTEXT('part definition',#629,'mechanical');
#631=PRODUCT('2026-06-06-15-16-57-069','power_sw',$,(#630));
#632=PRESENTATION_STYLE_ASSIGNMENT((#633));
#633=SURFACE_STYLE_USAGE(.BOTH.,#634);
#634=SURFACE_SIDE_STYLE('',(#635));
#635=SURFACE_STYLE_FILL_AREA(#636);
#636=FILL_AREA_STYLE('\X2\92FC\X0\ - \X2\30B530C630F3\X0\',(#637));
#637=FILL_AREA_STYLE_COLOUR('\X2\92FC\X0\ - \X2\30B530C630F3\X0\',#638);
#638=COLOUR_RGB('\X2\92FC\X0\ - \X2\30B530C630F3\X0\',0.627450980392157,
0.627450980392157,0.627450980392157);
ENDSEC;
END-ISO-10303-21;
