ISO-10303-21;
HEADER;
/* Generated by software containing ST-Developer
 * from STEP Tools, Inc. (www.steptools.com) 
 */

FILE_DESCRIPTION(
/* description */ (''),
/* implementation_level */ '2;1');

FILE_NAME(
/* name */ 'reset_sw.step',
/* time_stamp */ '2026-07-20T12:55:14+09:00',
/* author */ (''),
/* organization */ (''),
/* preprocessor_version */ 'ST-DEVELOPER v20.1',
/* originating_system */ 'Autodesk Translation Framework v15.8.0.0',
/* authorisation */ '');

FILE_SCHEMA (('AUTOMOTIVE_DESIGN { 1 0 10303 214 3 1 1 }'));
ENDSEC;

DATA;
#10=MECHANICAL_DESIGN_GEOMETRIC_PRESENTATION_REPRESENTATION('',(#13),#393);
#11=SHAPE_REPRESENTATION_RELATIONSHIP('SRR','None',#400,#12);
#12=ADVANCED_BREP_SHAPE_REPRESENTATION('',(#14),#392);
#13=STYLED_ITEM('',(#409),#14);
#14=MANIFOLD_SOLID_BREP('\X2\30DC30C730A3\X0\1',#222);
#15=FACE_BOUND('',#47,.T.);
#16=PLANE('',#241);
#17=PLANE('',#245);
#18=PLANE('',#246);
#19=PLANE('',#252);
#20=PLANE('',#257);
#21=PLANE('',#258);
#22=PLANE('',#259);
#23=CYLINDRICAL_SURFACE('',#239,0.65);
#24=CYLINDRICAL_SURFACE('',#242,0.2);
#25=CYLINDRICAL_SURFACE('',#250,0.2);
#26=CYLINDRICAL_SURFACE('',#253,0.2);
#27=CYLINDRICAL_SURFACE('',#255,0.2);
#28=FACE_OUTER_BOUND('',#41,.T.);
#29=FACE_OUTER_BOUND('',#42,.T.);
#30=FACE_OUTER_BOUND('',#43,.T.);
#31=FACE_OUTER_BOUND('',#44,.T.);
#32=FACE_OUTER_BOUND('',#45,.T.);
#33=FACE_OUTER_BOUND('',#46,.T.);
#34=FACE_OUTER_BOUND('',#48,.T.);
#35=FACE_OUTER_BOUND('',#49,.T.);
#36=FACE_OUTER_BOUND('',#50,.T.);
#37=FACE_OUTER_BOUND('',#51,.T.);
#38=FACE_OUTER_BOUND('',#52,.T.);
#39=FACE_OUTER_BOUND('',#53,.T.);
#40=FACE_OUTER_BOUND('',#54,.T.);
#41=EDGE_LOOP('',(#150,#151,#152,#153));
#42=EDGE_LOOP('',(#154,#155,#156,#157));
#43=EDGE_LOOP('',(#158));
#44=EDGE_LOOP('',(#159,#160,#161,#162));
#45=EDGE_LOOP('',(#163,#164,#165,#166));
#46=EDGE_LOOP('',(#167,#168,#169,#170,#171,#172,#173,#174));
#47=EDGE_LOOP('',(#175));
#48=EDGE_LOOP('',(#176,#177,#178,#179));
#49=EDGE_LOOP('',(#180,#181,#182,#183));
#50=EDGE_LOOP('',(#184,#185,#186,#187));
#51=EDGE_LOOP('',(#188,#189,#190,#191));
#52=EDGE_LOOP('',(#192,#193,#194,#195));
#53=EDGE_LOOP('',(#196,#197,#198,#199));
#54=EDGE_LOOP('',(#200,#201,#202,#203,#204,#205,#206,#207));
#55=LINE('',#333,#73);
#56=LINE('',#337,#74);
#57=LINE('',#345,#75);
#58=LINE('',#348,#76);
#59=LINE('',#351,#77);
#60=LINE('',#353,#78);
#61=LINE('',#354,#79);
#62=LINE('',#357,#80);
#63=LINE('',#361,#81);
#64=LINE('',#365,#82);
#65=LINE('',#371,#83);
#66=LINE('',#372,#84);
#67=LINE('',#375,#85);
#68=LINE('',#376,#86);
#69=LINE('',#380,#87);
#70=LINE('',#384,#88);
#71=LINE('',#386,#89);
#72=LINE('',#388,#90);
#73=VECTOR('',#266,0.6);
#74=VECTOR('',#271,0.65);
#75=VECTOR('',#280,10.);
#76=VECTOR('',#283,10.);
#77=VECTOR('',#286,10.);
#78=VECTOR('',#287,10.);
#79=VECTOR('',#288,10.);
#80=VECTOR('',#291,10.);
#81=VECTOR('',#294,10.);
#82=VECTOR('',#297,10.);
#83=VECTOR('',#304,10.);
#84=VECTOR('',#305,10.);
#85=VECTOR('',#308,10.);
#86=VECTOR('',#309,10.);
#87=VECTOR('',#314,10.);
#88=VECTOR('',#319,10.);
#89=VECTOR('',#322,10.);
#90=VECTOR('',#325,10.);
#91=CIRCLE('',#237,0.55);
#92=CIRCLE('',#238,0.65);
#93=CIRCLE('',#240,0.65);
#94=CIRCLE('',#243,0.2);
#95=CIRCLE('',#244,0.2);
#96=CIRCLE('',#247,0.2);
#97=CIRCLE('',#248,0.2);
#98=CIRCLE('',#249,0.2);
#99=CIRCLE('',#251,0.2);
#100=CIRCLE('',#254,0.2);
#101=CIRCLE('',#256,0.2);
#102=VERTEX_POINT('',#330);
#103=VERTEX_POINT('',#332);
#104=VERTEX_POINT('',#336);
#105=VERTEX_POINT('',#341);
#106=VERTEX_POINT('',#342);
#107=VERTEX_POINT('',#344);
#108=VERTEX_POINT('',#346);
#109=VERTEX_POINT('',#350);
#110=VERTEX_POINT('',#352);
#111=VERTEX_POINT('',#356);
#112=VERTEX_POINT('',#358);
#113=VERTEX_POINT('',#360);
#114=VERTEX_POINT('',#362);
#115=VERTEX_POINT('',#364);
#116=VERTEX_POINT('',#368);
#117=VERTEX_POINT('',#369);
#118=VERTEX_POINT('',#374);
#119=VERTEX_POINT('',#378);
#120=VERTEX_POINT('',#382);
#121=EDGE_CURVE('',#102,#102,#91,.T.);
#122=EDGE_CURVE('',#102,#103,#55,.T.);
#123=EDGE_CURVE('',#103,#103,#92,.T.);
#124=EDGE_CURVE('',#103,#104,#56,.T.);
#125=EDGE_CURVE('',#104,#104,#93,.T.);
#126=EDGE_CURVE('',#105,#106,#94,.T.);
#127=EDGE_CURVE('',#106,#107,#57,.T.);
#128=EDGE_CURVE('',#107,#108,#95,.T.);
#129=EDGE_CURVE('',#108,#105,#58,.T.);
#130=EDGE_CURVE('',#109,#108,#59,.T.);
#131=EDGE_CURVE('',#110,#109,#60,.T.);
#132=EDGE_CURVE('',#105,#110,#61,.T.);
#133=EDGE_CURVE('',#107,#111,#62,.T.);
#134=EDGE_CURVE('',#112,#111,#96,.T.);
#135=EDGE_CURVE('',#112,#113,#63,.T.);
#136=EDGE_CURVE('',#114,#113,#97,.T.);
#137=EDGE_CURVE('',#114,#115,#64,.T.);
#138=EDGE_CURVE('',#109,#115,#98,.T.);
#139=EDGE_CURVE('',#116,#117,#99,.T.);
#140=EDGE_CURVE('',#117,#112,#65,.T.);
#141=EDGE_CURVE('',#111,#116,#66,.T.);
#142=EDGE_CURVE('',#118,#117,#67,.T.);
#143=EDGE_CURVE('',#113,#118,#68,.T.);
#144=EDGE_CURVE('',#118,#119,#100,.T.);
#145=EDGE_CURVE('',#119,#114,#69,.T.);
#146=EDGE_CURVE('',#120,#110,#101,.T.);
#147=EDGE_CURVE('',#115,#120,#70,.T.);
#148=EDGE_CURVE('',#120,#119,#71,.T.);
#149=EDGE_CURVE('',#116,#106,#72,.T.);
#150=ORIENTED_EDGE('',*,*,#121,.T.);
#151=ORIENTED_EDGE('',*,*,#122,.T.);
#152=ORIENTED_EDGE('',*,*,#123,.T.);
#153=ORIENTED_EDGE('',*,*,#122,.F.);
#154=ORIENTED_EDGE('',*,*,#123,.F.);
#155=ORIENTED_EDGE('',*,*,#124,.T.);
#156=ORIENTED_EDGE('',*,*,#125,.F.);
#157=ORIENTED_EDGE('',*,*,#124,.F.);
#158=ORIENTED_EDGE('',*,*,#121,.F.);
#159=ORIENTED_EDGE('',*,*,#126,.T.);
#160=ORIENTED_EDGE('',*,*,#127,.T.);
#161=ORIENTED_EDGE('',*,*,#128,.T.);
#162=ORIENTED_EDGE('',*,*,#129,.T.);
#163=ORIENTED_EDGE('',*,*,#129,.F.);
#164=ORIENTED_EDGE('',*,*,#130,.F.);
#165=ORIENTED_EDGE('',*,*,#131,.F.);
#166=ORIENTED_EDGE('',*,*,#132,.F.);
#167=ORIENTED_EDGE('',*,*,#128,.F.);
#168=ORIENTED_EDGE('',*,*,#133,.T.);
#169=ORIENTED_EDGE('',*,*,#134,.F.);
#170=ORIENTED_EDGE('',*,*,#135,.T.);
#171=ORIENTED_EDGE('',*,*,#136,.F.);
#172=ORIENTED_EDGE('',*,*,#137,.T.);
#173=ORIENTED_EDGE('',*,*,#138,.F.);
#174=ORIENTED_EDGE('',*,*,#130,.T.);
#175=ORIENTED_EDGE('',*,*,#125,.T.);
#176=ORIENTED_EDGE('',*,*,#139,.T.);
#177=ORIENTED_EDGE('',*,*,#140,.T.);
#178=ORIENTED_EDGE('',*,*,#134,.T.);
#179=ORIENTED_EDGE('',*,*,#141,.T.);
#180=ORIENTED_EDGE('',*,*,#140,.F.);
#181=ORIENTED_EDGE('',*,*,#142,.F.);
#182=ORIENTED_EDGE('',*,*,#143,.F.);
#183=ORIENTED_EDGE('',*,*,#135,.F.);
#184=ORIENTED_EDGE('',*,*,#144,.T.);
#185=ORIENTED_EDGE('',*,*,#145,.T.);
#186=ORIENTED_EDGE('',*,*,#136,.T.);
#187=ORIENTED_EDGE('',*,*,#143,.T.);
#188=ORIENTED_EDGE('',*,*,#146,.T.);
#189=ORIENTED_EDGE('',*,*,#131,.T.);
#190=ORIENTED_EDGE('',*,*,#138,.T.);
#191=ORIENTED_EDGE('',*,*,#147,.T.);
#192=ORIENTED_EDGE('',*,*,#145,.F.);
#193=ORIENTED_EDGE('',*,*,#148,.F.);
#194=ORIENTED_EDGE('',*,*,#147,.F.);
#195=ORIENTED_EDGE('',*,*,#137,.F.);
#196=ORIENTED_EDGE('',*,*,#127,.F.);
#197=ORIENTED_EDGE('',*,*,#149,.F.);
#198=ORIENTED_EDGE('',*,*,#141,.F.);
#199=ORIENTED_EDGE('',*,*,#133,.F.);
#200=ORIENTED_EDGE('',*,*,#126,.F.);
#201=ORIENTED_EDGE('',*,*,#132,.T.);
#202=ORIENTED_EDGE('',*,*,#146,.F.);
#203=ORIENTED_EDGE('',*,*,#148,.T.);
#204=ORIENTED_EDGE('',*,*,#144,.F.);
#205=ORIENTED_EDGE('',*,*,#142,.T.);
#206=ORIENTED_EDGE('',*,*,#139,.F.);
#207=ORIENTED_EDGE('',*,*,#149,.T.);
#208=CONICAL_SURFACE('',#236,0.6,0.785398163397448);
#209=ADVANCED_FACE('',(#28),#208,.T.);
#210=ADVANCED_FACE('',(#29),#23,.T.);
#211=ADVANCED_FACE('',(#30),#16,.F.);
#212=ADVANCED_FACE('',(#31),#24,.T.);
#213=ADVANCED_FACE('',(#32),#17,.T.);
#214=ADVANCED_FACE('',(#33,#15),#18,.F.);
#215=ADVANCED_FACE('',(#34),#25,.T.);
#216=ADVANCED_FACE('',(#35),#19,.T.);
#217=ADVANCED_FACE('',(#36),#26,.T.);
#218=ADVANCED_FACE('',(#37),#27,.T.);
#219=ADVANCED_FACE('',(#38),#20,.T.);
#220=ADVANCED_FACE('',(#39),#21,.T.);
#221=ADVANCED_FACE('',(#40),#22,.T.);
#222=CLOSED_SHELL('',(#209,#210,#211,#212,#213,#214,#215,#216,#217,#218,
#219,#220,#221));
#223=DERIVED_UNIT_ELEMENT(#225,1.);
#224=DERIVED_UNIT_ELEMENT(#395,-3.);
#225=(
MASS_UNIT()
NAMED_UNIT(*)
SI_UNIT(.KILO.,.GRAM.)
);
#226=DERIVED_UNIT((#223,#224));
#227=MEASURE_REPRESENTATION_ITEM('density measure',
POSITIVE_RATIO_MEASURE(7850.),#226);
#228=PROPERTY_DEFINITION_REPRESENTATION(#233,#230);
#229=PROPERTY_DEFINITION_REPRESENTATION(#234,#231);
#230=REPRESENTATION('material name',(#232),#392);
#231=REPRESENTATION('density',(#227),#392);
#232=DESCRIPTIVE_REPRESENTATION_ITEM('\X2\92FC\X0\','\X2\92FC\X0\');
#233=PROPERTY_DEFINITION('material property','material name',#402);
#234=PROPERTY_DEFINITION('material property','density of part',#402);
#235=AXIS2_PLACEMENT_3D('',#328,#260,#261);
#236=AXIS2_PLACEMENT_3D('',#329,#262,#263);
#237=AXIS2_PLACEMENT_3D('',#331,#264,#265);
#238=AXIS2_PLACEMENT_3D('',#334,#267,#268);
#239=AXIS2_PLACEMENT_3D('',#335,#269,#270);
#240=AXIS2_PLACEMENT_3D('',#338,#272,#273);
#241=AXIS2_PLACEMENT_3D('',#339,#274,#275);
#242=AXIS2_PLACEMENT_3D('',#340,#276,#277);
#243=AXIS2_PLACEMENT_3D('',#343,#278,#279);
#244=AXIS2_PLACEMENT_3D('',#347,#281,#282);
#245=AXIS2_PLACEMENT_3D('',#349,#284,#285);
#246=AXIS2_PLACEMENT_3D('',#355,#289,#290);
#247=AXIS2_PLACEMENT_3D('',#359,#292,#293);
#248=AXIS2_PLACEMENT_3D('',#363,#295,#296);
#249=AXIS2_PLACEMENT_3D('',#366,#298,#299);
#250=AXIS2_PLACEMENT_3D('',#367,#300,#301);
#251=AXIS2_PLACEMENT_3D('',#370,#302,#303);
#252=AXIS2_PLACEMENT_3D('',#373,#306,#307);
#253=AXIS2_PLACEMENT_3D('',#377,#310,#311);
#254=AXIS2_PLACEMENT_3D('',#379,#312,#313);
#255=AXIS2_PLACEMENT_3D('',#381,#315,#316);
#256=AXIS2_PLACEMENT_3D('',#383,#317,#318);
#257=AXIS2_PLACEMENT_3D('',#385,#320,#321);
#258=AXIS2_PLACEMENT_3D('',#387,#323,#324);
#259=AXIS2_PLACEMENT_3D('',#389,#326,#327);
#260=DIRECTION('axis',(0.,0.,1.));
#261=DIRECTION('refdir',(1.,0.,0.));
#262=DIRECTION('center_axis',(0.,0.,1.));
#263=DIRECTION('ref_axis',(1.,0.,0.));
#264=DIRECTION('center_axis',(0.,0.,1.));
#265=DIRECTION('ref_axis',(1.,0.,0.));
#266=DIRECTION('',(-0.707106781186547,8.65956056235493E-17,0.707106781186548));
#267=DIRECTION('center_axis',(0.,0.,-1.));
#268=DIRECTION('ref_axis',(1.,0.,0.));
#269=DIRECTION('center_axis',(0.,0.,-1.));
#270=DIRECTION('ref_axis',(1.,0.,0.));
#271=DIRECTION('',(0.,0.,1.));
#272=DIRECTION('center_axis',(0.,0.,1.));
#273=DIRECTION('ref_axis',(1.,0.,0.));
#274=DIRECTION('center_axis',(0.,0.,1.));
#275=DIRECTION('ref_axis',(1.,0.,0.));
#276=DIRECTION('center_axis',(0.,0.,1.));
#277=DIRECTION('ref_axis',(0.707106781186548,-0.707106781186548,0.));
#278=DIRECTION('center_axis',(0.,0.,-1.));
#279=DIRECTION('ref_axis',(0.707106781186548,-0.707106781186548,0.));
#280=DIRECTION('',(0.,0.,-1.));
#281=DIRECTION('center_axis',(0.,0.,1.));
#282=DIRECTION('ref_axis',(0.707106781186548,-0.707106781186548,0.));
#283=DIRECTION('',(0.,0.,1.));
#284=DIRECTION('center_axis',(1.,0.,0.));
#285=DIRECTION('ref_axis',(0.,1.,0.));
#286=DIRECTION('',(0.,-1.,0.));
#287=DIRECTION('',(0.,0.,-1.));
#288=DIRECTION('',(0.,1.,0.));
#289=DIRECTION('center_axis',(0.,0.,1.));
#290=DIRECTION('ref_axis',(1.,0.,0.));
#291=DIRECTION('',(-1.,0.,0.));
#292=DIRECTION('center_axis',(0.,0.,1.));
#293=DIRECTION('ref_axis',(-0.707106781186548,-0.707106781186548,0.));
#294=DIRECTION('',(0.,1.,0.));
#295=DIRECTION('center_axis',(0.,0.,1.));
#296=DIRECTION('ref_axis',(-0.707106781186548,0.707106781186548,0.));
#297=DIRECTION('',(1.,0.,0.));
#298=DIRECTION('center_axis',(0.,0.,1.));
#299=DIRECTION('ref_axis',(0.707106781186548,0.707106781186548,0.));
#300=DIRECTION('center_axis',(0.,0.,1.));
#301=DIRECTION('ref_axis',(-0.707106781186548,-0.707106781186548,0.));
#302=DIRECTION('center_axis',(0.,0.,-1.));
#303=DIRECTION('ref_axis',(-0.707106781186548,-0.707106781186548,0.));
#304=DIRECTION('',(0.,0.,-1.));
#305=DIRECTION('',(0.,0.,1.));
#306=DIRECTION('center_axis',(-1.,0.,0.));
#307=DIRECTION('ref_axis',(0.,-1.,0.));
#308=DIRECTION('',(0.,-1.,0.));
#309=DIRECTION('',(0.,0.,1.));
#310=DIRECTION('center_axis',(0.,0.,1.));
#311=DIRECTION('ref_axis',(-0.707106781186548,0.707106781186548,0.));
#312=DIRECTION('center_axis',(0.,0.,-1.));
#313=DIRECTION('ref_axis',(-0.707106781186548,0.707106781186548,0.));
#314=DIRECTION('',(0.,0.,-1.));
#315=DIRECTION('center_axis',(0.,0.,1.));
#316=DIRECTION('ref_axis',(0.707106781186548,0.707106781186548,0.));
#317=DIRECTION('center_axis',(0.,0.,-1.));
#318=DIRECTION('ref_axis',(0.707106781186548,0.707106781186548,0.));
#319=DIRECTION('',(0.,0.,1.));
#320=DIRECTION('center_axis',(0.,1.,0.));
#321=DIRECTION('ref_axis',(-1.,0.,0.));
#322=DIRECTION('',(-1.,0.,0.));
#323=DIRECTION('center_axis',(0.,-1.,0.));
#324=DIRECTION('ref_axis',(1.,0.,0.));
#325=DIRECTION('',(1.,0.,0.));
#326=DIRECTION('center_axis',(0.,0.,1.));
#327=DIRECTION('ref_axis',(1.,0.,0.));
#328=CARTESIAN_POINT('',(0.,0.,0.));
#329=CARTESIAN_POINT('Origin',(0.,0.,-0.75));
#330=CARTESIAN_POINT('',(-0.55,-6.73555739531044E-17,-0.8));
#331=CARTESIAN_POINT('Origin',(0.,0.,-0.8));
#332=CARTESIAN_POINT('',(-0.65,7.9602041944578E-17,-0.7));
#333=CARTESIAN_POINT('',(-0.6,7.34788079488412E-17,-0.75));
#334=CARTESIAN_POINT('Origin',(0.,0.,-0.7));
#335=CARTESIAN_POINT('Origin',(0.,0.,0.));
#336=CARTESIAN_POINT('',(-0.65,-7.9602041944578E-17,0.));
#337=CARTESIAN_POINT('',(-0.65,7.9602041944578E-17,0.));
#338=CARTESIAN_POINT('Origin',(0.,0.,0.));
#339=CARTESIAN_POINT('Origin',(0.,0.,-0.8));
#340=CARTESIAN_POINT('Origin',(0.7,-0.7,0.));
#341=CARTESIAN_POINT('',(0.9,-0.7,2.4));
#342=CARTESIAN_POINT('',(0.7,-0.9,2.4));
#343=CARTESIAN_POINT('Origin',(0.7,-0.7,2.4));
#344=CARTESIAN_POINT('',(0.7,-0.9,0.));
#345=CARTESIAN_POINT('',(0.7,-0.9,0.));
#346=CARTESIAN_POINT('',(0.9,-0.7,0.));
#347=CARTESIAN_POINT('Origin',(0.7,-0.7,0.));
#348=CARTESIAN_POINT('',(0.9,-0.7,0.));
#349=CARTESIAN_POINT('Origin',(0.9,-0.9,0.));
#350=CARTESIAN_POINT('',(0.9,0.7,0.));
#351=CARTESIAN_POINT('',(0.9,0.9,0.));
#352=CARTESIAN_POINT('',(0.9,0.7,2.4));
#353=CARTESIAN_POINT('',(0.9,0.7,0.));
#354=CARTESIAN_POINT('',(0.9,0.9,2.4));
#355=CARTESIAN_POINT('Origin',(0.,0.,0.));
#356=CARTESIAN_POINT('',(-0.7,-0.9,0.));
#357=CARTESIAN_POINT('',(0.9,-0.9,0.));
#358=CARTESIAN_POINT('',(-0.9,-0.7,0.));
#359=CARTESIAN_POINT('Origin',(-0.7,-0.7,0.));
#360=CARTESIAN_POINT('',(-0.9,0.7,0.));
#361=CARTESIAN_POINT('',(-0.9,-0.9,0.));
#362=CARTESIAN_POINT('',(-0.7,0.9,0.));
#363=CARTESIAN_POINT('Origin',(-0.7,0.7,0.));
#364=CARTESIAN_POINT('',(0.7,0.9,0.));
#365=CARTESIAN_POINT('',(-0.9,0.9,0.));
#366=CARTESIAN_POINT('Origin',(0.7,0.7,0.));
#367=CARTESIAN_POINT('Origin',(-0.7,-0.7,0.));
#368=CARTESIAN_POINT('',(-0.7,-0.9,2.4));
#369=CARTESIAN_POINT('',(-0.9,-0.7,2.4));
#370=CARTESIAN_POINT('Origin',(-0.7,-0.7,2.4));
#371=CARTESIAN_POINT('',(-0.9,-0.7,0.));
#372=CARTESIAN_POINT('',(-0.7,-0.9,0.));
#373=CARTESIAN_POINT('Origin',(-0.9,0.9,0.));
#374=CARTESIAN_POINT('',(-0.9,0.7,2.4));
#375=CARTESIAN_POINT('',(-0.9,-0.9,2.4));
#376=CARTESIAN_POINT('',(-0.9,0.7,0.));
#377=CARTESIAN_POINT('Origin',(-0.7,0.7,0.));
#378=CARTESIAN_POINT('',(-0.7,0.9,2.4));
#379=CARTESIAN_POINT('Origin',(-0.7,0.7,2.4));
#380=CARTESIAN_POINT('',(-0.7,0.9,0.));
#381=CARTESIAN_POINT('Origin',(0.7,0.7,0.));
#382=CARTESIAN_POINT('',(0.7,0.9,2.4));
#383=CARTESIAN_POINT('Origin',(0.7,0.7,2.4));
#384=CARTESIAN_POINT('',(0.7,0.9,0.));
#385=CARTESIAN_POINT('Origin',(0.9,0.9,0.));
#386=CARTESIAN_POINT('',(-0.9,0.9,2.4));
#387=CARTESIAN_POINT('Origin',(-0.9,-0.9,0.));
#388=CARTESIAN_POINT('',(0.9,-0.9,2.4));
#389=CARTESIAN_POINT('Origin',(0.,0.,2.4));
#390=UNCERTAINTY_MEASURE_WITH_UNIT(LENGTH_MEASURE(0.01),#394,
'DISTANCE_ACCURACY_VALUE',
'Maximum model space distance between geometric entities at asserted c
onnectivities');
#391=UNCERTAINTY_MEASURE_WITH_UNIT(LENGTH_MEASURE(0.01),#394,
'DISTANCE_ACCURACY_VALUE',
'Maximum model space distance between geometric entities at asserted c
onnectivities');
#392=(
GEOMETRIC_REPRESENTATION_CONTEXT(3)
GLOBAL_UNCERTAINTY_ASSIGNED_CONTEXT((#390))
GLOBAL_UNIT_ASSIGNED_CONTEXT((#394,#396,#397))
REPRESENTATION_CONTEXT('','3D')
);
#393=(
GEOMETRIC_REPRESENTATION_CONTEXT(3)
GLOBAL_UNCERTAINTY_ASSIGNED_CONTEXT((#391))
GLOBAL_UNIT_ASSIGNED_CONTEXT((#394,#396,#397))
REPRESENTATION_CONTEXT('','3D')
);
#394=(
LENGTH_UNIT()
NAMED_UNIT(*)
SI_UNIT(.MILLI.,.METRE.)
);
#395=(
LENGTH_UNIT()
NAMED_UNIT(*)
SI_UNIT($,.METRE.)
);
#396=(
NAMED_UNIT(*)
PLANE_ANGLE_UNIT()
SI_UNIT($,.RADIAN.)
);
#397=(
NAMED_UNIT(*)
SI_UNIT($,.STERADIAN.)
SOLID_ANGLE_UNIT()
);
#398=SHAPE_DEFINITION_REPRESENTATION(#399,#400);
#399=PRODUCT_DEFINITION_SHAPE('',$,#402);
#400=SHAPE_REPRESENTATION('',(#235),#392);
#401=PRODUCT_DEFINITION_CONTEXT('part definition',#406,'design');
#402=PRODUCT_DEFINITION('2026-06-06-15-54-46-662','reset_sw',#403,#401);
#403=PRODUCT_DEFINITION_FORMATION('',$,#408);
#404=PRODUCT_RELATED_PRODUCT_CATEGORY('reset_sw','reset_sw',(#408));
#405=APPLICATION_PROTOCOL_DEFINITION('international standard',
'automotive_design',2009,#406);
#406=APPLICATION_CONTEXT(
'Core Data for Automotive Mechanical Design Process');
#407=PRODUCT_CONTEXT('part definition',#406,'mechanical');
#408=PRODUCT('2026-06-06-15-54-46-662','reset_sw',$,(#407));
#409=PRESENTATION_STYLE_ASSIGNMENT((#410));
#410=SURFACE_STYLE_USAGE(.BOTH.,#411);
#411=SURFACE_SIDE_STYLE('',(#412));
#412=SURFACE_STYLE_FILL_AREA(#413);
#413=FILL_AREA_STYLE('\X2\92FC\X0\ - \X2\30B530C630F3\X0\',(#414));
#414=FILL_AREA_STYLE_COLOUR('\X2\92FC\X0\ - \X2\30B530C630F3\X0\',#415);
#415=COLOUR_RGB('\X2\92FC\X0\ - \X2\30B530C630F3\X0\',0.627450980392157,
0.627450980392157,0.627450980392157);
ENDSEC;
END-ISO-10303-21;
